<?xml version="1.0" encoding="UTF-8"?>
<svg width="101px" height="101px" viewBox="0 0 101 101" version="1.1" xmlns="http://www.w3.org/2000/svg" xmlns:xlink="http://www.w3.org/1999/xlink">
    <!-- Generator: Sketch 50.2 (55047) - http://www.bohemiancoding.com/sketch -->
    <title>pixelated</title>
    <desc>Created with Sketch.</desc>
    <defs>
        <circle id="path-1" cx="50" cy="50" r="50"></circle>
    </defs>
    <g id="Page-1" stroke="none" stroke-width="1" fill="none" fill-rule="evenodd">
        <g id="asset-1" transform="translate(-245.177602, -166.774527)">
            <g id="pixelated" transform="translate(246.000000, 167.000000)">
                <mask id="mask-2" fill="white">
                    <use xlink:href="#path-1"></use>
                </mask>
                <use id="Mask" fill="#027E79" xlink:href="#path-1"></use>
                <g mask="url(#mask-2)">
                    <g transform="translate(6.000000, 8.000000)">
                        <g id="shirt" stroke-width="1" fill="none" transform="translate(0.000000, 83.240422)">
                            <rect id="Rectangle-73" fill="#52F2FF" x="0" y="7.46022648" width="36.9285714" height="7.46022648"></rect>
                            <rect id="Rectangle-73" fill="#52F2FF" x="1.96428571" y="5.49700899" width="36.9285714" height="7.46022648"></rect>
                            <rect id="Rectangle-73" fill="#52F2FF" x="3.92857143" y="3.92643499" width="36.9285714" height="7.46022648"></rect>
                            <rect id="Rectangle-73" fill="#52F2FF" x="5.5" y="1.9632175" width="36.9285714" height="7.46022648"></rect>
                            <rect id="Rectangle-73" fill="#52F2FF" x="7.85714286" y="0" width="36.9285714" height="7.46022648"></rect>
                            <rect id="Rectangle-73" fill="#52F2FF" x="1.96428571" y="9.42344398" width="36.9285714" height="7.46022648"></rect>
                            <rect id="Rectangle-73" fill="#52F2FF" x="48.7142857" y="9.42344398" width="37.3214286" height="7.46022648"></rect>
                            <rect id="Rectangle-73" fill="#52F2FF" x="50.6785714" y="9.42344398" width="37.3214286" height="5.49700899"></rect>
                            <rect id="Rectangle-73" fill="#52F2FF" x="48.7142857" y="7.85286998" width="37.3214286" height="5.49700899"></rect>
                            <rect id="Rectangle-73" fill="#52F2FF" x="46.75" y="5.49700899" width="37.3214286" height="5.49700899"></rect>
                            <rect id="Rectangle-73" fill="#52F2FF" x="44.7857143" y="3.92643499" width="37.3214286" height="5.49700899"></rect>
                            <rect id="Rectangle-73" fill="#52F2FF" x="41.25" y="1.9632175" width="37.3214286" height="5.49700899"></rect>
                            <rect id="Rectangle-73" fill="#52F2FF" x="39.2857143" y="0" width="37.3214286" height="5.49700899"></rect>
                        </g>
                        <g id="neck" stroke-width="1" fill="none" transform="translate(35.357143, 77.743413)">
                            <path d="M18.8571429,31.8041234 L16.8928571,31.8041234 L16.8928571,29.8409059 L14.9285714,29.8409059 L14.9285714,27.8776884 L11,27.8776884 L11,25.9144709 L9.42857143,25.9144709 L9.42857143,24.3438969 L7.46428571,24.3438969 L7.46428571,22.3806794 L5.89285714,22.3806794 L5.89285714,20.417462 L3.53571429,20.417462 L3.53571429,18.4542445 L1.96428571,18.4542445 L1.96428571,9.03080048 L1.96428571,5.49700899 L0,5.49700899 L0,0 L2.35714286,0 L2.35714286,3.53379149 L20.0357143,3.53379149 L20.0357143,0 L22.3928571,0 L22.3928571,5.49700899 L24.3571429,5.49700899 L24.3571429,18.4542445 L28.6785714,18.4542445 L28.6785714,20.417462 L28.6785714,22.3806794 L28.2857143,22.3806794 L28.2857143,24.3438969 L26.3214286,24.3438969 L26.3214286,25.9144709 L26.3214286,27.8776884 L24.3571429,27.8776884 L24.3571429,29.8409059 L24.3571429,31.8041234 L22.3928571,31.8041234 L22.3928571,33.3746974 L18.8571429,33.3746974 L18.8571429,31.8041234 Z" id="Combined-Shape" fill="#EEB67F"></path>
                        </g>
                        <path d="M74.25,48.2951504 L74.25,64.7861773 L74.25,65.5714643 L75.8214286,65.5714643 L75.8214286,78.1360563 L77.7857143,78.1360563 L77.7857143,83.2404218 L75.8214286,83.2404218 L57.3571429,83.2404218 L57.3571429,77.7434128 L55.7857143,77.7434128 L55.7857143,64.7861773 L55.7857143,47.1172199 L73.0714286,47.1172199 L73.0714286,35.7305584 L73.4642857,35.7305584 L73.4642857,29.8409059 L76.6071429,29.8409059 L76.6071429,36.1232019 L75.8214286,36.1232019 L75.8214286,48.2951504 L74.25,48.2951504 Z M13.75,78.1360563 L13.75,70.2831863 L11.3928571,70.2831863 L11.3928571,62.8229599 L11.7857143,62.8229599 L11.7857143,48.2951504 L13.75,48.2951504 L13.75,37.3011324 L15.7142857,37.3011324 L15.7142857,29.8409059 L17.6785714,29.8409059 L17.6785714,12.9572355 L41.6428571,12.9572355 L41.6428571,38.8717064 L34.9642857,38.8717064 L34.9642857,48.6877939 L35.3571429,48.6877939 L35.3571429,83.2404218 L37.3214286,83.2404218 L37.3214286,91.8785788 L25.5357143,91.8785788 L25.5357143,89.5227178 L23.5714286,89.5227178 L23.5714286,83.2404218 L9.03571429,83.2404218 L9.03571429,80.4919173 L10.2142857,80.4919173 L10.2142857,79.3139868 L12.5714286,79.3139868 L12.5714286,78.1360563 L13.75,78.1360563 Z" id="Combined-Shape" fill="#170C04"></path>
                        <polygon id="Rectangle-52" fill="#EEB67F" points="40.8571429 14.920453 70.7142857 14.920453 70.7142857 51.4362984 69.1428571 51.4362984 69.1428571 55.3627334 40.8571429 55.7553769"></polygon>
                        <g id="hair-and-face" stroke-width="1" fill="none" transform="translate(19.642857, 0.000000)">
                            <rect id="Rectangle-43" fill="#1F1F1F" x="40.8571429" y="31.4114799" width="1.96428571" height="1.9632175"></rect>
                            <rect id="Rectangle-45" fill="#1F1F1F" x="42.8214286" y="29.8409059" width="5.5" height="1.570574"></rect>
                            <rect id="Rectangle-46" fill="#1F1F1F" x="48.3214286" y="31.4114799" width="1.96428571" height="1.9632175"></rect>
                            <rect id="Rectangle-44" fill="#1F1F1F" x="27.5" y="31.4114799" width="1.96428571" height="1.9632175"></rect>
                            <path d="M46.3571429,7.46022648 L46.3571429,9.03080048 L48.3214286,9.03080048 L48.3214286,10.994018 L50.2857143,10.994018 L50.2857143,14.920453 L46.5535714,14.920453 L42.8214286,14.920453 L42.8214286,16.491027 L44.7857143,16.491027 L44.7857143,22.3806794 L46.3571429,22.3806794 L46.3571429,25.9144709 L48.3214286,25.9144709 L48.3214286,29.8409059 L48.3214286,31.4114799 L50.2857143,31.4114799 L50.2857143,38.8717064 L51.4642857,38.8717064 L51.4642857,48.2951504 L53.4285714,48.2951504 L53.4285714,38.8717064 L53.8214286,38.8717064 L53.8214286,31.4114799 L53.8214286,29.8409059 L55.7857143,29.8409059 L57.75,29.8409059 L57.75,27.8776884 L55.7857143,27.8776884 L55.7857143,25.9144709 L55.7857143,22.3806794 L53.8214286,22.3806794 L53.8214286,18.4542445 L52.25,18.4542445 L52.25,16.491027 L52.25,14.920453 L46.5535714,14.920453 L42.8214286,14.920453 L42.8214286,18.4542445 L42.8214286,20.417462 L40.8571429,20.417462 L40.8571429,22.3806794 L40.4642857,22.3806794 L34.9642857,22.3806794 L34.9642857,23.9512534 L35.3571429,23.9512534 L35.3571429,25.9144709 L34.9642857,25.9144709 L33.3928571,25.9144709 L33.3928571,27.8776884 L29.8571429,27.8776884 L29.8571429,29.8409059 L27.5,29.8409059 L27.5,31.4114799 L23.9642857,31.4114799 L23.9642857,33.3746974 L22.7857143,33.3746974 L22.7857143,35.3379149 L20.4285714,35.3379149 L20.4285714,37.3011324 L16.5,37.3011324 L16.5,35.3379149 L18.4642857,35.3379149 L18.4642857,33.3746974 L20.4285714,33.3746974 L20.4285714,31.4114799 L22,31.4114799 L22,29.8409059 L23.9642857,29.8409059 L23.9642857,27.8776884 L16.5,27.8776884 L16.5,29.8409059 L14.9285714,29.8409059 L14.9285714,31.4114799 L12.9642857,31.4114799 L12.9642857,29.8409059 L11,29.8409059 L11,27.8776884 L8.64285714,27.8776884 L8.64285714,25.9144709 L11,25.9144709 L11,23.9512534 L12.5714286,23.9512534 L12.5714286,22.3806794 L14.9285714,22.3806794 L14.9285714,20.417462 L16.1071429,20.417462 L16.1071429,18.4542445 L11,18.4542445 L11,22.3806794 L9.03571429,22.3806794 L7.46428571,22.3806794 L7.46428571,20.417462 L9.03571429,20.417462 L9.03571429,16.491027 L11,16.491027 L11,14.920453 L7.46428571,14.920453 L7.46428571,18.4542445 L5.5,18.4542445 L5.5,20.417462 L3.53571429,20.417462 L3.53571429,25.9144709 L0,25.9144709 L0,18.4542445 L0,14.920453 L1.57142857,14.920453 L1.57142857,10.994018 L3.53571429,10.994018 L3.53571429,9.42344398 L3.53571429,7.46022648 L7.46428571,7.46022648 L7.46428571,5.49700899 L9.03571429,5.49700899 L9.03571429,3.53379149 L12.9642857,3.53379149 L12.9642857,1.570574 L23.9642857,1.570574 L23.9642857,0 L33.3928571,0 L33.3928571,1.570574 L38.8928571,1.570574 L38.8928571,3.53379149 L42.8214286,3.53379149 L42.8214286,5.49700899 L46.3571429,5.49700899 L46.3571429,7.46022648 Z" id="light-hair" fill="#442711"></path>
                            <rect id="Rectangle-37" fill="#4C2B11" x="34.9642857" y="21.9880359" width="3.92857143" height="1.9632175"></rect>
                            <rect id="Rectangle-34" fill="#442711" x="11" y="18.4542445" width="3.92857143" height="1.9632175"></rect>
                            <g id="nose" opacity="0.300000012" transform="translate(30.250000, 34.945271)" fill="#000000">
                                <rect id="Rectangle-47" x="1.96428571" y="7.85286998" width="1.96428571" height="4.31907849"></rect>
                                <rect id="Rectangle-49" x="5.5" y="5.88965249" width="1.96428571" height="5.88965249"></rect>
                                <rect id="Rectangle-49" x="5.5" y="0" width="1.96428571" height="3.92643499"></rect>
                                <rect id="Rectangle-50" x="7.46428571" y="9.81608748" width="1.96428571" height="5.49700899"></rect>
                                <rect id="Rectangle-51" x="1.96428571" y="13.349879" width="5.5" height="1.9632175"></rect>
                                <rect id="Rectangle-48" x="0" y="9.81608748" width="1.96428571" height="5.49700899"></rect>
                            </g>
                            <g id="eye" transform="translate(20.428571, 35.337915)">
                                <rect id="Rectangle-41" fill="#3D1A17" x="0" y="0" width="5.5" height="2.35586099"></rect>
                                <rect id="Rectangle-41" fill="#2A1706" x="0" y="1.9632175" width="5.5" height="3.53379149"></rect>
                            </g>
                            <rect id="Rectangle-63" fill="#EEB67F" x="14.5357143" y="38.8717064" width="5.89285714" height="2.35586099"></rect>
                            <rect id="Rectangle-63" fill="#EEB67F" x="13.75" y="40.4422804" width="6.67857143" height="2.35586099"></rect>
                            <rect id="Rectangle-63" fill="#EEB67F" x="14.9285714" y="40.8349239" width="6.67857143" height="2.35586099"></rect>
                            <rect id="Rectangle-63" fill="#EEB67F" x="13.75" y="42.4054979" width="7.46428571" height="2.35586099"></rect>
                            <rect id="Rectangle-63" fill="#EEB67F" x="13.3571429" y="43.9760719" width="8.25" height="7.12390549"></rect>
                            <rect id="Rectangle-63" fill="#EEB67F" x="13.75" y="49.8657244" width="9.42857143" height="5.88965249"></rect>
                            <rect id="Rectangle-63" fill="#EEB67F" x="14.5357143" y="51.4362984" width="9.42857143" height="5.88965249"></rect>
                            <rect id="Rectangle-63" fill="#EEB67F" x="16.5" y="53.0068724" width="9.42857143" height="5.88965249"></rect>
                            <rect id="Rectangle-63" fill="#EEB67F" x="19.6428571" y="54.9700899" width="9.42857143" height="5.88965249"></rect>
                            <rect id="Rectangle-63" fill="#EEB67F" x="25.1428571" y="57.3259509" width="9.42857143" height="5.88965249"></rect>
                            <rect id="Rectangle-63" fill="#EEB67F" x="27.1071429" y="58.8965249" width="11" height="5.88965249"></rect>
                            <rect id="Rectangle-63" fill="#EEB67F" x="27.1071429" y="57.3259509" width="11" height="5.88965249"></rect>
                            <rect id="Rectangle-63" fill="#EEB67F" x="31.0357143" y="57.3259509" width="11" height="5.88965249"></rect>
                            <rect id="Rectangle-63" fill="#EEB67F" x="38.5" y="54.9700899" width="5.5" height="5.88965249"></rect>
                            <rect id="Rectangle-63" fill="#EEB67F" x="40.0714286" y="53.0068724" width="5.5" height="5.88965249"></rect>
                            <rect id="Rectangle-63" fill="#EEB67F" x="42.0357143" y="51.4362984" width="5.5" height="5.88965249"></rect>
                            <rect id="Rectangle-63" fill="#EEB67F" x="50.2857143" y="38.8717064" width="1.17857143" height="12.564592"></rect>
                            <g id="eye" transform="translate(42.821429, 35.337915)">
                                <rect id="Rectangle-41" fill="#3D1A17" x="0" y="0" width="5.5" height="2.35586099"></rect>
                                <rect id="Rectangle-41" fill="#2A1706" x="0" y="1.9632175" width="5.5" height="3.53379149"></rect>
                            </g>
                            <g id="teeth" transform="translate(22.172874, 53.792159)">
                                <rect id="Rectangle-42" fill="#FEFEE3" x="7.68426843" y="0" width="11" height="1.96661419"></rect>
                                <rect id="Rectangle-42" fill="#FEFEE3" x="9.255697" y="1.08132773" width="7.46428571" height="2.84850395"></rect>
                                <rect id="Rectangle-42" fill="#EEB67F" x="1.81759803" y="1.9632175" width="7.46428571" height="1.9632175"></rect>
                                <rect id="Rectangle-42" fill="#EEB67F" x="0.228705411" y="0.728571826" width="7.46428571" height="1.9632175"></rect>
                            </g>
                        </g>
                        <g id="neck-shadow" stroke-width="1" fill="none" transform="translate(31.821429, 49.865724)">
                            <rect id="Rectangle-65" fill="#A67F58" x="9.42857143" y="30.6261929" width="12.9642857" height="2.74850449"></rect>
                            <rect id="Rectangle-66" fill="#A67F58" x="12.9642857" y="32.5894104" width="7.46428571" height="2.74850449"></rect>
                            <rect id="Rectangle-64" fill="#A67F58" x="0" y="0" width="1.57142857" height="9.42344398"></rect>
                            <rect id="Rectangle-64" fill="#A67F58" x="0.785714286" y="5.88965249" width="1.57142857" height="9.42344398"></rect>
                            <rect id="Rectangle-64" fill="#A67F58" x="1.57142857" y="7.46022648" width="2.75" height="9.42344398"></rect>
                            <rect id="Rectangle-64" fill="#A67F58" x="3.14285714" y="9.03080048" width="4.32142857" height="9.42344398"></rect>
                            <rect id="Rectangle-64" fill="#A67F58" x="5.5" y="10.994018" width="7.46428571" height="9.42344398"></rect>
                            <rect id="Rectangle-64" fill="#A67F58" x="7.46428571" y="13.349879" width="7.46428571" height="9.42344398"></rect>
                            <rect id="Rectangle-64" fill="#A67F58" x="12.9642857" y="14.920453" width="11.3928571" height="9.42344398"></rect>
                            <rect id="Rectangle-64" fill="#A67F58" x="12.9642857" y="21.9880359" width="11.3928571" height="9.42344398"></rect>
                            <rect id="Rectangle-64" fill="#A67F58" x="5.5" y="21.9880359" width="11.3928571" height="9.42344398"></rect>
                            <rect id="Rectangle-64" fill="#A67F58" x="3.53571429" y="18.4542445" width="11.3928571" height="9.42344398"></rect>
                            <rect id="Rectangle-64" fill="#A67F58" x="1.96428571" y="14.920453" width="11.3928571" height="9.42344398"></rect>
                            <rect id="Rectangle-67" fill="#A67F58" x="16.8928571" y="38.8717064" width="3.53571429" height="1.9632175"></rect>
                            <rect id="Rectangle-67" fill="#A67F58" x="5.5" y="40.8349239" width="5.5" height="1.9632175"></rect>
                            <rect id="Rectangle-67" fill="#A67F58" x="5.5" y="38.8717064" width="3.14285714" height="1.9632175"></rect>
                            <rect id="Rectangle-67" fill="#A67F58" x="22.3928571" y="40.8349239" width="5.5" height="1.9632175"></rect>
                            <rect id="Rectangle-67" fill="#A67F58" x="25.5357143" y="39.2643499" width="2.35714286" height="1.570574"></rect>
                        </g>
                    </g>
                </g>
            </g>
        </g>
    </g>
</svg>