<svg xmlns="http://www.w3.org/2000/svg" xmlns:xlink="http://www.w3.org/1999/xlink" width="592" height="344" viewBox="0 0 592 344">
  <defs>
    <rect id="dailynclexchallenge-b" width="400" height="342" x="96" y="222" rx="2.5"/>
    <filter id="dailynclexchallenge-a" width="102.2%" height="102.6%" x="-1.1%" y="-1%" filterUnits="objectBoundingBox">
      <feOffset dy="1" in="SourceAlpha" result="shadowOffsetOuter1"/>
      <feGaussianBlur in="shadowOffsetOuter1" result="shadowBlurOuter1" stdDeviation="1"/>
      <feColorMatrix in="shadowBlurOuter1" result="shadowMatrixOuter1" values="0 0 0 0 0   0 0 0 0 0   0 0 0 0 0  0 0 0 0.1 0"/>
      <feMorphology in="SourceAlpha" operator="dilate" radius=".5" result="shadowSpreadOuter2"/>
      <feOffset in="shadowSpreadOuter2" result="shadowOffsetOuter2"/>
      <feColorMatrix in="shadowOffsetOuter2" result="shadowMatrixOuter2" values="0 0 0 0 0   0 0 0 0 0   0 0 0 0 0  0 0 0 0.1 0"/>
      <feMerge>
        <feMergeNode in="shadowMatrixOuter1"/>
        <feMergeNode in="shadowMatrixOuter2"/>
      </feMerge>
    </filter>
    <polygon id="dailynclexchallenge-c" points=".23 .136 89.712 .136 89.712 89.33 .23 89.33"/>
    <polygon id="dailynclexchallenge-e" points="0 100.057 91.488 100.057 91.488 .189 0 .189"/>
    <path id="dailynclexchallenge-g" d="M40.2174908,0.619823789 C34.244407,1.78376432 28.7696724,5.31410352 25.2572434,10.2678238 C24.8925868,10.7827203 24.5568007,11.3122269 24.2347836,11.8492599 C9.9660956,19.302641 0.230075654,34.2036476 0.230075654,51.3740947 C0.230075654,76.0041211 20.2613149,95.970859 44.9713513,95.970859 C69.6804993,95.970859 89.7117386,76.0041211 89.7117386,51.3740947 C89.7117386,33.9809537 79.7216582,18.9148084 65.1500521,11.5619273 C63.3063377,8.56242291 60.8838809,5.96270485 57.7210069,3.94385022 C53.8701268,1.48669163 49.2961517,0.188603524 44.7270624,0.188603524 C43.2142484,0.188603524 41.7027668,0.330720264 40.2174908,0.619823789"/>
    <path id="dailynclexchallenge-i" d="M40.2174908,0.619823789 C34.244407,1.78376432 28.7696724,5.31410352 25.2572434,10.2678238 C24.8925868,10.7827203 24.5568007,11.3122269 24.2347836,11.8492599 C9.9660956,19.302641 0.230075654,34.2036476 0.230075654,51.3740947 C0.230075654,76.0041211 20.2613149,95.970859 44.9713513,95.970859 C69.6804993,95.970859 89.7117386,76.0041211 89.7117386,51.3740947 C89.7117386,33.9809537 79.7216582,18.9148084 65.1500521,11.5619273 C63.3063377,8.56242291 60.8838809,5.96270485 57.7210069,3.94385022 C53.8701268,1.48669163 49.2961517,0.188603524 44.7270624,0.188603524 C43.2142484,0.188603524 41.7027668,0.330720264 40.2174908,0.619823789"/>
    <path id="dailynclexchallenge-k" d="M40.2174908,0.619823789 C34.244407,1.78376432 28.7696724,5.31410352 25.2572434,10.2678238 C24.8925868,10.7827203 24.5568007,11.3122269 24.2347836,11.8492599 C9.9660956,19.302641 0.230075654,34.2036476 0.230075654,51.3740947 C0.230075654,76.0041211 20.2613149,95.970859 44.9713513,95.970859 C69.6804993,95.970859 89.7117386,76.0041211 89.7117386,51.3740947 C89.7117386,33.9809537 79.7216582,18.9148084 65.1500521,11.5619273 C63.3063377,8.56242291 60.8838809,5.96270485 57.7210069,3.94385022 C53.8701268,1.48669163 49.2961517,0.188603524 44.7270624,0.188603524 C43.2142484,0.188603524 41.7027668,0.330720264 40.2174908,0.619823789 Z"/>
    <path id="dailynclexchallenge-m" d="M40.2174908,0.619823789 C34.244407,1.78376432 28.7696724,5.31410352 25.2572434,10.2678238 C24.8925868,10.7827203 24.5568007,11.3122269 24.2347836,11.8492599 C9.9660956,19.302641 0.230075654,34.2036476 0.230075654,51.3740947 C0.230075654,76.0041211 20.2613149,95.970859 44.9713513,95.970859 C69.6804993,95.970859 89.7117386,76.0041211 89.7117386,51.3740947 C89.7117386,33.9809537 79.7216582,18.9148084 65.1500521,11.5619273 C63.3063377,8.56242291 60.8838809,5.96270485 57.7210069,3.94385022 C53.8701268,1.48669163 49.2961517,0.188603524 44.7270624,0.188603524 C43.2142484,0.188603524 41.7027668,0.330720264 40.2174908,0.619823789 Z"/>
    <path id="dailynclexchallenge-o" d="M40.2174908,0.619823789 C34.244407,1.78376432 28.7696724,5.31410352 25.2572434,10.2678238 C24.8925868,10.7827203 24.5568007,11.3122269 24.2347836,11.8492599 C9.9660956,19.302641 0.230075654,34.2036476 0.230075654,51.3740947 C0.230075654,76.0041211 20.2613149,95.970859 44.9713513,95.970859 C69.6804993,95.970859 89.7117386,76.0041211 89.7117386,51.3740947 C89.7117386,33.9809537 79.7216582,18.9148084 65.1500521,11.5619273 C63.3063377,8.56242291 60.8838809,5.96270485 57.7210069,3.94385022 C53.8701268,1.48669163 49.2961517,0.188603524 44.7270624,0.188603524 C43.2142484,0.188603524 41.7027668,0.330720264 40.2174908,0.619823789"/>
    <path id="dailynclexchallenge-q" d="M40.2174908,0.619823789 C34.244407,1.78376432 28.7696724,5.31410352 25.2572434,10.2678238 C24.8925868,10.7827203 24.5568007,11.3122269 24.2347836,11.8492599 C9.9660956,19.302641 0.230075654,34.2036476 0.230075654,51.3740947 C0.230075654,76.0041211 20.2613149,95.970859 44.9713513,95.970859 C69.6804993,95.970859 89.7117386,76.0041211 89.7117386,51.3740947 C89.7117386,33.9809537 79.7216582,18.9148084 65.1500521,11.5619273 C63.3063377,8.56242291 60.8838809,5.96270485 57.7210069,3.94385022 C53.8701268,1.48669163 49.2961517,0.188603524 44.7270624,0.188603524 C43.2142484,0.188603524 41.7027668,0.330720264 40.2174908,0.619823789"/>
    <path id="dailynclexchallenge-s" d="M40.2174908,0.619823789 C34.244407,1.78376432 28.7696724,5.31410352 25.2572434,10.2678238 C24.8925868,10.7827203 24.5568007,11.3122269 24.2347836,11.8492599 C9.9660956,19.302641 0.230075654,34.2036476 0.230075654,51.3740947 C0.230075654,76.0041211 20.2613149,95.970859 44.9713513,95.970859 C69.6804993,95.970859 89.7117386,76.0041211 89.7117386,51.3740947 C89.7117386,33.9809537 79.7216582,18.9148084 65.1500521,11.5619273 C63.3063377,8.56242291 60.8838809,5.96270485 57.7210069,3.94385022 C53.8701268,1.48669163 49.2961517,0.188603524 44.7270624,0.188603524 C43.2142484,0.188603524 41.7027668,0.330720264 40.2174908,0.619823789"/>
    <path id="dailynclexchallenge-u" d="M40.2174908,0.619823789 C34.244407,1.78376432 28.7696724,5.31410352 25.2572434,10.2678238 C24.8925868,10.7827203 24.5568007,11.3122269 24.2347836,11.8492599 C9.9660956,19.302641 0.230075654,34.2036476 0.230075654,51.3740947 C0.230075654,76.0041211 20.2613149,95.970859 44.9713513,95.970859 C69.6804993,95.970859 89.7117386,76.0041211 89.7117386,51.3740947 C89.7117386,33.9809537 79.7216582,18.9148084 65.1500521,11.5619273 C63.3063377,8.56242291 60.8838809,5.96270485 57.7210069,3.94385022 C53.8701268,1.48669163 49.2961517,0.188603524 44.7270624,0.188603524 C43.2142484,0.188603524 41.7027668,0.330720264 40.2174908,0.619823789"/>
    <path id="dailynclexchallenge-w" d="M40.2174908,0.619823789 C34.244407,1.78376432 28.7696724,5.31410352 25.2572434,10.2678238 C24.8925868,10.7827203 24.5568007,11.3122269 24.2347836,11.8492599 C9.9660956,19.302641 0.230075654,34.2036476 0.230075654,51.3740947 C0.230075654,76.0041211 20.2613149,95.970859 44.9713513,95.970859 C69.6804993,95.970859 89.7117386,76.0041211 89.7117386,51.3740947 C89.7117386,33.9809537 79.7216582,18.9148084 65.1500521,11.5619273 C63.3063377,8.56242291 60.8838809,5.96270485 57.7210069,3.94385022 C53.8701268,1.48669163 49.2961517,0.188603524 44.7270624,0.188603524 C43.2142484,0.188603524 41.7027668,0.330720264 40.2174908,0.619823789 Z"/>
    <path id="dailynclexchallenge-y" d="M40.2174908,0.619823789 C34.244407,1.78376432 28.7696724,5.31410352 25.2572434,10.2678238 C24.8925868,10.7827203 24.5568007,11.3122269 24.2347836,11.8492599 C9.9660956,19.302641 0.230075654,34.2036476 0.230075654,51.3740947 C0.230075654,76.0041211 20.2613149,95.970859 44.9713513,95.970859 C69.6804993,95.970859 89.7117386,76.0041211 89.7117386,51.3740947 C89.7117386,33.9809537 79.7216582,18.9148084 65.1500521,11.5619273 C63.3063377,8.56242291 60.8838809,5.96270485 57.7210069,3.94385022 C53.8701268,1.48669163 49.2961517,0.188603524 44.7270624,0.188603524 C43.2142484,0.188603524 41.7027668,0.330720264 40.2174908,0.619823789"/>
    <path id="dailynclexchallenge-A" d="M40.2174908,0.619823789 C34.244407,1.78376432 28.7696724,5.31410352 25.2572434,10.2678238 C24.8925868,10.7827203 24.5568007,11.3122269 24.2347836,11.8492599 C9.9660956,19.302641 0.230075654,34.2036476 0.230075654,51.3740947 C0.230075654,76.0041211 20.2613149,95.970859 44.9713513,95.970859 C69.6804993,95.970859 89.7117386,76.0041211 89.7117386,51.3740947 C89.7117386,33.9809537 79.7216582,18.9148084 65.1500521,11.5619273 C63.3063377,8.56242291 60.8838809,5.96270485 57.7210069,3.94385022 C53.8701268,1.48669163 49.2961517,0.188603524 44.7270624,0.188603524 C43.2142484,0.188603524 41.7027668,0.330720264 40.2174908,0.619823789"/>
    <path id="dailynclexchallenge-C" d="M40.2174908,0.619823789 C34.244407,1.78376432 28.7696724,5.31410352 25.2572434,10.2678238 C24.8925868,10.7827203 24.5568007,11.3122269 24.2347836,11.8492599 C9.9660956,19.302641 0.230075654,34.2036476 0.230075654,51.3740947 C0.230075654,76.0041211 20.2613149,95.970859 44.9713513,95.970859 C69.6804993,95.970859 89.7117386,76.0041211 89.7117386,51.3740947 C89.7117386,33.9809537 79.7216582,18.9148084 65.1500521,11.5619273 C63.3063377,8.56242291 60.8838809,5.96270485 57.7210069,3.94385022 C53.8701268,1.48669163 49.2961517,0.188603524 44.7270624,0.188603524 C43.2142484,0.188603524 41.7027668,0.330720264 40.2174908,0.619823789 Z"/>
    <path id="dailynclexchallenge-E" d="M40.2174908,0.619823789 C34.244407,1.78376432 28.7696724,5.31410352 25.2572434,10.2678238 C24.8925868,10.7827203 24.5568007,11.3122269 24.2347836,11.8492599 C9.9660956,19.302641 0.230075654,34.2036476 0.230075654,51.3740947 C0.230075654,76.0041211 20.2613149,95.970859 44.9713513,95.970859 C69.6804993,95.970859 89.7117386,76.0041211 89.7117386,51.3740947 C89.7117386,33.9809537 79.7216582,18.9148084 65.1500521,11.5619273 C63.3063377,8.56242291 60.8838809,5.96270485 57.7210069,3.94385022 C53.8701268,1.48669163 49.2961517,0.188603524 44.7270624,0.188603524 C43.2142484,0.188603524 41.7027668,0.330720264 40.2174908,0.619823789 Z"/>
    <path id="dailynclexchallenge-G" d="M40.2174908,0.619823789 C34.244407,1.78376432 28.7696724,5.31410352 25.2572434,10.2678238 C24.8925868,10.7827203 24.5568007,11.3122269 24.2347836,11.8492599 C9.9660956,19.302641 0.230075654,34.2036476 0.230075654,51.3740947 C0.230075654,76.0041211 20.2613149,95.970859 44.9713513,95.970859 C69.6804993,95.970859 89.7117386,76.0041211 89.7117386,51.3740947 C89.7117386,33.9809537 79.7216582,18.9148084 65.1500521,11.5619273 C63.3063377,8.56242291 60.8838809,5.96270485 57.7210069,3.94385022 C53.8701268,1.48669163 49.2961517,0.188603524 44.7270624,0.188603524 C43.2142484,0.188603524 41.7027668,0.330720264 40.2174908,0.619823789 Z"/>
    <path id="dailynclexchallenge-I" d="M40.2174908,0.619823789 C34.244407,1.78376432 28.7696724,5.31410352 25.2572434,10.2678238 C24.8925868,10.7827203 24.5568007,11.3122269 24.2347836,11.8492599 C9.9660956,19.302641 0.230075654,34.2036476 0.230075654,51.3740947 C0.230075654,76.0041211 20.2613149,95.970859 44.9713513,95.970859 C69.6804993,95.970859 89.7117386,76.0041211 89.7117386,51.3740947 C89.7117386,33.9809537 79.7216582,18.9148084 65.1500521,11.5619273 C63.3063377,8.56242291 60.8838809,5.96270485 57.7210069,3.94385022 C53.8701268,1.48669163 49.2961517,0.188603524 44.7270624,0.188603524 C43.2142484,0.188603524 41.7027668,0.330720264 40.2174908,0.619823789"/>
    <path id="dailynclexchallenge-K" d="M40.2174908,0.619823789 C34.244407,1.78376432 28.7696724,5.31410352 25.2572434,10.2678238 C24.8925868,10.7827203 24.5568007,11.3122269 24.2347836,11.8492599 C9.9660956,19.302641 0.230075654,34.2036476 0.230075654,51.3740947 C0.230075654,76.0041211 20.2613149,95.970859 44.9713513,95.970859 C69.6804993,95.970859 89.7117386,76.0041211 89.7117386,51.3740947 C89.7117386,33.9809537 79.7216582,18.9148084 65.1500521,11.5619273 C63.3063377,8.56242291 60.8838809,5.96270485 57.7210069,3.94385022 C53.8701268,1.48669163 49.2961517,0.188603524 44.7270624,0.188603524 C43.2142484,0.188603524 41.7027668,0.330720264 40.2174908,0.619823789"/>
    <path id="dailynclexchallenge-M" d="M40.2174908,0.619823789 C34.244407,1.78376432 28.7696724,5.31410352 25.2572434,10.2678238 C24.8925868,10.7827203 24.5568007,11.3122269 24.2347836,11.8492599 C9.9660956,19.302641 0.230075654,34.2036476 0.230075654,51.3740947 C0.230075654,76.0041211 20.2613149,95.970859 44.9713513,95.970859 C69.6804993,95.970859 89.7117386,76.0041211 89.7117386,51.3740947 C89.7117386,33.9809537 79.7216582,18.9148084 65.1500521,11.5619273 C63.3063377,8.56242291 60.8838809,5.96270485 57.7210069,3.94385022 C53.8701268,1.48669163 49.2961517,0.188603524 44.7270624,0.188603524 C43.2142484,0.188603524 41.7027668,0.330720264 40.2174908,0.619823789 Z"/>
    <path id="dailynclexchallenge-O" d="M40.2174908,0.619823789 C34.244407,1.78376432 28.7696724,5.31410352 25.2572434,10.2678238 C24.8925868,10.7827203 24.5568007,11.3122269 24.2347836,11.8492599 C9.9660956,19.302641 0.230075654,34.2036476 0.230075654,51.3740947 C0.230075654,76.0041211 20.2613149,95.970859 44.9713513,95.970859 C69.6804993,95.970859 89.7117386,76.0041211 89.7117386,51.3740947 C89.7117386,33.9809537 79.7216582,18.9148084 65.1500521,11.5619273 C63.3063377,8.56242291 60.8838809,5.96270485 57.7210069,3.94385022 C53.8701268,1.48669163 49.2961517,0.188603524 44.7270624,0.188603524 C43.2142484,0.188603524 41.7027668,0.330720264 40.2174908,0.619823789"/>
    <path id="dailynclexchallenge-Q" d="M40.2174908,0.619823789 C34.244407,1.78376432 28.7696724,5.31410352 25.2572434,10.2678238 C24.8925868,10.7827203 24.5568007,11.3122269 24.2347836,11.8492599 C9.9660956,19.302641 0.230075654,34.2036476 0.230075654,51.3740947 C0.230075654,76.0041211 20.2613149,95.970859 44.9713513,95.970859 C69.6804993,95.970859 89.7117386,76.0041211 89.7117386,51.3740947 C89.7117386,33.9809537 79.7216582,18.9148084 65.1500521,11.5619273 C63.3063377,8.56242291 60.8838809,5.96270485 57.7210069,3.94385022 C53.8701268,1.48669163 49.2961517,0.188603524 44.7270624,0.188603524 C43.2142484,0.188603524 41.7027668,0.330720264 40.2174908,0.619823789"/>
    <polygon id="dailynclexchallenge-S" points="0 100.057 91.488 100.057 91.488 .189 0 .189"/>
    <polygon id="dailynclexchallenge-U" points="0 .037 100.731 .037 100.731 100.768 0 100.768"/>
    <path id="dailynclexchallenge-W" d="M0,50.4025 C0,78.219 22.5495,100.768 50.366,100.768 C78.1815,100.768 100.7315,78.219 100.7315,50.4025 C100.7315,22.5865 78.1815,0.037 50.366,0.037 C22.5495,0.037 0,22.5865 0,50.4025"/>
    <path id="dailynclexchallenge-Y" d="M0,50.4025 C0,78.219 22.5495,100.768 50.366,100.768 C78.1815,100.768 100.7315,78.219 100.7315,50.4025 C100.7315,22.5865 78.1815,0.037 50.366,0.037 C22.5495,0.037 0,22.5865 0,50.4025"/>
    <path id="dailynclexchallenge-aa" d="M0,50.4025 C0,78.219 22.5495,100.768 50.366,100.768 C78.1815,100.768 100.7315,78.219 100.7315,50.4025 C100.7315,22.5865 78.1815,0.037 50.366,0.037 C22.5495,0.037 0,22.5865 0,50.4025 Z"/>
    <rect id="dailynclexchallenge-ad" width="150.5" height="30" rx="2.5"/>
    <filter id="dailynclexchallenge-ac" width="106%" height="130%" x="-3%" y="-11.7%" filterUnits="objectBoundingBox">
      <feOffset dy="1" in="SourceAlpha" result="shadowOffsetOuter1"/>
      <feGaussianBlur in="shadowOffsetOuter1" result="shadowBlurOuter1" stdDeviation="1"/>
      <feColorMatrix in="shadowBlurOuter1" result="shadowMatrixOuter1" values="0 0 0 0 0   0 0 0 0 0   0 0 0 0 0  0 0 0 0.1 0"/>
      <feMorphology in="SourceAlpha" operator="dilate" radius=".5" result="shadowSpreadOuter2"/>
      <feOffset in="shadowSpreadOuter2" result="shadowOffsetOuter2"/>
      <feColorMatrix in="shadowOffsetOuter2" result="shadowMatrixOuter2" values="0 0 0 0 0   0 0 0 0 0   0 0 0 0 0  0 0 0 0.1 0"/>
      <feMerge>
        <feMergeNode in="shadowMatrixOuter1"/>
        <feMergeNode in="shadowMatrixOuter2"/>
      </feMerge>
    </filter>
  </defs>
  <g fill="none" fill-rule="evenodd">
    <rect width="592" height="344" fill="#F8F7F3"/>
    <path fill="#FFFDF9" d="M199,-119 L597,-119 L597,264 L91,264 L91,-11 C91,-70.646753 139.353247,-119 199,-119 Z" transform="matrix(1 0 0 -1 0 145)"/>
    <rect width="200" height="20" x="196" y="37" fill="#2E2E2E" fill-rule="nonzero" rx="2.036"/>
    <use fill="#000" filter="url(#dailynclexchallenge-a)" xlink:href="#dailynclexchallenge-b"/>
    <use fill="#FFF" xlink:href="#dailynclexchallenge-b"/>
    <g transform="translate(460 93)">
      <g transform="translate(0 .254)">
        <g transform="translate(1.777 6.641)">
          <mask id="dailynclexchallenge-d" fill="#fff">
            <use xlink:href="#dailynclexchallenge-c"/>
          </mask>
          <path fill="#FDE0AF" d="M89.7118274,44.733037 C89.7118274,69.3630634 69.6805882,89.3298013 44.9709959,89.3298013 C20.2614037,89.3298013 0.230164486,69.3630634 0.230164486,44.733037 C0.230164486,20.1030106 20.2614037,0.136272687 44.9709959,0.136272687 C69.6805882,0.136272687 89.7118274,20.1030106 89.7118274,44.733037" mask="url(#dailynclexchallenge-d)"/>
        </g>
        <path fill="#FCC96C" d="M73.9510233,53.4337249 C74.9939145,52.9152866 76.4769697,51.4609143 76.4494317,50.6055575 L76.4494317,46.8011676 C76.4494317,46.093683 77.0246208,45.520346 77.7339467,45.520346 L85.0297434,45.520346 C85.7390693,45.520346 86.3142585,46.093683 86.3142585,46.8011676 L86.3142585,53.2712425 C86.3142585,53.9782844 85.7390693,54.5511786 85.0297434,54.5511786 L77.7339467,54.5511786 C77.0246208,54.5511786 76.4494317,53.9782844 76.4494317,53.2712425 L76.4494317,52.7567888 C75.6601567,53.2114738 74.6727857,53.4337249 73.9510233,53.4337249"/>
        <mask id="dailynclexchallenge-f" fill="#fff">
          <use xlink:href="#dailynclexchallenge-e"/>
        </mask>
        <path fill="#FEEFD7" d="M80.8933563,52.597804 L81.7687986,52.597804 L81.7687986,51.7605991 L80.8933563,51.7605991 L80.8933563,52.597804 Z M80.8933563,50.8029714 C80.8933563,49.7745066 82.0672751,49.6115815 82.0672751,48.8806322 C82.0672751,48.5476982 81.7683544,48.2922423 81.3774923,48.2922423 C80.9710845,48.2922423 80.6157553,48.5902004 80.6157553,48.5902004 L80.1178503,47.973033 C80.1178503,47.973033 80.6086487,47.4621211 81.4552205,47.4621211 C82.259597,47.4621211 83.0066766,47.9588656 83.0066766,48.7960705 C83.0066766,49.9662093 81.7683544,50.1007996 81.7683544,50.8671674 L81.7683544,51.1434317 L80.8933563,51.1434317 L80.8933563,50.8029714 Z" mask="url(#dailynclexchallenge-f)"/>
      </g>
      <g transform="translate(1.777 .254)">
        <mask id="dailynclexchallenge-h" fill="#fff">
          <use xlink:href="#dailynclexchallenge-g"/>
        </mask>
        <path fill="#2C2254" d="M65.9426583,72.3127163 C68.4819295,70.782637 68.2678437,62.9564762 68.5263457,60.4453044 C70.2781186,43.439996 75.0604054,15.0108925 57.7207849,3.94393877 C52.5956054,0.673040088 46.1899083,-0.543585463 40.2172687,0.619912335 C34.2446291,1.78341013 28.7698945,5.31419207 25.2570213,10.2679123 C21.2395806,15.9339872 19.8915504,23.0446943 19.3079222,29.9579432 C18.724294,36.8716348 18.7944715,43.8889256 17.1795003,50.6374784 C15.9971424,55.5788022 13.9300149,60.2832648 12.8560324,65.2489388 C11.7820499,70.2150555 11.8158061,75.725289 14.5753815,79.9963176 C14.5753815,79.9223815 14.5505085,80.5337934 14.5505085,80.4603 C21.7232724,85.1466106 31.4566274,85.9692053 39.7389068,83.7502361 C48.0211862,81.531267 58.6020013,76.7338308 65.9426583,72.3127163" mask="url(#dailynclexchallenge-h)"/>
        <mask id="dailynclexchallenge-j" fill="#fff">
          <use xlink:href="#dailynclexchallenge-i"/>
        </mask>
        <path fill="#E3BFB9" d="M69.8304038,72.488702 C69.8304038,79.1721733 58.7605669,84.589876 45.105266,84.589876 C31.4504091,84.589876 20.3805722,79.1721733 20.3805722,72.488702 C20.3805722,65.8052306 31.4504091,60.387528 45.105266,60.387528 C58.7605669,60.387528 69.8304038,65.8052306 69.8304038,72.488702" mask="url(#dailynclexchallenge-j)"/>
        <mask id="dailynclexchallenge-l" fill="#fff">
          <use xlink:href="#dailynclexchallenge-k"/>
        </mask>
        <polygon fill="#E3BFB9" points="56.061 73.374 34.15 73.374 35.038 47.696 55.617 47.696" mask="url(#dailynclexchallenge-l)"/>
        <mask id="dailynclexchallenge-n" fill="#fff">
          <use xlink:href="#dailynclexchallenge-m"/>
        </mask>
        <path fill="#DDB9B6" d="M55.5851232,47.6957504 L35.0057887,47.6957504 L34.8805351,51.3017967 C35.2949378,52.7893738 36.547029,53.9816491 37.9932189,54.7852064 C38.9757041,55.3310941 40.0479099,55.6976756 41.0064104,55.8552879 C44.6747402,56.4582879 48.6091227,54.775909 51.6480757,52.87305 C53.1209152,51.9508407 54.451623,50.840028 55.6171028,49.5662901 L55.5851232,47.6957504 Z" mask="url(#dailynclexchallenge-n)"/>
        <mask id="dailynclexchallenge-p" fill="#fff">
          <use xlink:href="#dailynclexchallenge-o"/>
        </mask>
        <path fill="#E9CCC7" d="M58.765808,10.3489322 C55.3693051,4.78734185 49.8599259,1.19236388 42.9740903,1.70106211 C35.143079,2.27971189 29.515997,8.58818987 27.8113052,15.9198198 C26.3593413,22.1649872 27.8481706,29.4625269 28.6503263,35.7524101 C29.2792589,40.6813374 29.2579392,45.5128639 33.1132609,49.1711524 C35.9065926,51.82267 39.7628027,53.1079189 43.4551172,53.1145599 C47.3468602,53.1216436 51.2457098,51.8000907 54.4330127,49.3190247 C59.1362387,45.6571943 59.7034329,41.0970621 60.2306526,35.7519674 C60.9728465,28.2211084 63.3695419,19.5767802 59.8406788,12.3168727 C59.5102227,11.6377229 59.1517844,10.9807097 58.765808,10.3489322" mask="url(#dailynclexchallenge-p)"/>
        <mask id="dailynclexchallenge-r" fill="#fff">
          <use xlink:href="#dailynclexchallenge-q"/>
        </mask>
        <path fill="#E7C9C4" d="M59.8406788,12.3170055 C59.5102227,11.637413 59.1517844,10.9803998 58.765808,10.349065 C57.7797695,8.73398128 56.6107365,7.29200551 55.2862469,6.06121256 C55.3821858,17.6452764 57.9716473,29.9660452 54.0203866,41.1906112 C52.3392354,45.9650253 49.1719198,50.6539923 43.9183776,51.8250165 C41.4506164,52.3748888 38.960647,52.1508667 36.5333045,51.5283866 C38.6972592,52.5873998 41.1090562,53.1102654 43.4551172,53.1146927 C47.3468602,53.1217764 51.2457098,51.8002236 54.4330127,49.3191575 C59.1362387,45.6573271 59.7034329,41.0967522 60.2306526,35.7521002 C60.9728465,28.2207985 63.3695419,19.576913 59.8406788,12.3170055" mask="url(#dailynclexchallenge-r)"/>
        <mask id="dailynclexchallenge-t" fill="#fff">
          <use xlink:href="#dailynclexchallenge-s"/>
        </mask>
        <path stroke="#BE9997" stroke-linecap="round" stroke-width=".663" d="M41.6463139,24.3673982 L41.0089422,28.9846427 C40.7171281,31.1004555 40.166812,33.1724379 39.3704304,35.1549885 L38.6180208,37.0295128 C38.4345821,37.4864115 38.6602162,38.0048498 39.1203675,38.1837132 C40.83261,38.8482529 42.7011975,39.0067507 44.5018282,38.638841 L44.7612185,38.5861559" mask="url(#dailynclexchallenge-t)"/>
        <g>
          <mask id="dailynclexchallenge-v" fill="#fff">
            <use xlink:href="#dailynclexchallenge-u"/>
          </mask>
          <path fill="#BE9997" d="M47.8569797,41.6522914 C47.2626916,42.00382 44.0611755,43.8464676 41.8190483,44.1098927 C41.7248861,44.120961 41.716447,44.2497958 41.8079443,44.2745888 L43.6645393,44.7788597 C44.4964538,44.9519676 45.363457,44.8160491 46.1016534,44.3954544 C46.8642787,43.961135 47.4332496,43.2554214 47.6953049,42.4195447 L47.9200506,41.7032055 C47.9315988,41.6651306 47.8916243,41.6319258 47.8569797,41.6522914" mask="url(#dailynclexchallenge-v)"/>
        </g>
        <g>
          <mask id="dailynclexchallenge-x" fill="#fff">
            <use xlink:href="#dailynclexchallenge-w"/>
          </mask>
          <path fill="#2C2254" d="M48.4950176,20.4372727 C49.062656,20.0773322 49.7102435,19.9520392 50.3462828,19.9502683 C50.6691882,19.9356581 50.9827662,19.9963123 51.3016741,20.0432419 C51.6134755,20.1198344 51.9226119,20.2136934 52.2224209,20.3358872 C52.5177883,20.4660502 52.7984984,20.6320744 53.069881,20.8056251 C53.319944,21.0141515 53.58955,21.1912441 53.7916435,21.4502419 C54.2353608,21.9137815 54.546718,22.5017286 54.6781898,23.1401471 L54.6821873,23.1587419 C54.6861847,23.1817639 54.6715274,23.2039004 54.648431,23.2087705 C54.6333295,23.2118696 54.6177838,23.2061141 54.6084564,23.1950458 C54.2300309,22.759841 53.834283,22.3361471 53.3643601,22.0005568 C52.9095387,21.6477 52.4018621,21.3674511 51.8719775,21.1487419 C51.3483111,20.9140943 50.7944417,20.7409863 50.2268033,20.6382727 C49.6609416,20.5329026 49.0777575,20.4873013 48.5052334,20.5253762 C48.482137,20.5267044 48.4617055,20.5089952 48.4599289,20.4855304 C48.4590406,20.4695921 48.4670355,20.4554247 48.4799162,20.4470128 L48.4950176,20.4372727 Z" mask="url(#dailynclexchallenge-x)"/>
        </g>
        <g>
          <mask id="dailynclexchallenge-z" fill="#fff">
            <use xlink:href="#dailynclexchallenge-y"/>
          </mask>
          <path fill="#2C2254" d="M49.2662152,29.8554952 C48.6417242,29.8554952 48.1353801,29.3507815 48.1353801,28.7287441 L48.1353801,27.9012793 C48.1353801,27.2792419 48.6417242,26.7749709 49.2662152,26.7749709 C49.8902621,26.7749709 50.3966062,27.2792419 50.3966062,27.9012793 L50.3966062,28.7287441 C50.3966062,29.3507815 49.8902621,29.8554952 49.2662152,29.8554952" mask="url(#dailynclexchallenge-z)"/>
        </g>
        <g>
          <mask id="dailynclexchallenge-B" fill="#fff">
            <use xlink:href="#dailynclexchallenge-A"/>
          </mask>
          <path fill="#2C2254" d="M34.4991781,30.0024819 C33.8751312,30.0024819 33.3687871,29.4977683 33.3687871,28.8757308 L33.3687871,28.0482661 C33.3687871,27.4262286 33.8751312,26.921515 34.4991781,26.921515 C35.1236691,26.921515 35.6295691,27.4262286 35.6295691,28.0482661 L35.6295691,28.8757308 C35.6295691,29.4977683 35.1236691,30.0024819 34.4991781,30.0024819" mask="url(#dailynclexchallenge-B)"/>
        </g>
        <g>
          <mask id="dailynclexchallenge-D" fill="#fff">
            <use xlink:href="#dailynclexchallenge-C"/>
          </mask>
          <path fill="#9DAAD7" d="M34.6306054,69.5002659 C41.5648547,71.1007394 48.7807023,71.0458407 55.6896344,69.3391117 L57.7270031,68.8361689 L44.8463198,83.8890324 L34.6306054,69.5002659 Z" mask="url(#dailynclexchallenge-D)"/>
        </g>
        <g>
          <mask id="dailynclexchallenge-F" fill="#fff">
            <use xlink:href="#dailynclexchallenge-E"/>
          </mask>
          <path fill="#8C9DCF" d="M55.6896788,69.3392002 C53.8059899,69.8045108 51.8992046,70.1423148 49.9817594,70.3623522 C48.3356969,73.0736385 46.4990891,75.6755703 44.9285341,78.4337861 C44.331581,79.4830593 43.7817091,80.5549117 43.2442737,81.6325196 L44.8463642,83.8891209 L57.7270475,68.8362575 L55.6896788,69.3392002 Z" mask="url(#dailynclexchallenge-F)"/>
        </g>
        <g>
          <mask id="dailynclexchallenge-H" fill="#fff">
            <use xlink:href="#dailynclexchallenge-G"/>
          </mask>
          <path fill="#6883C1" d="M44.8094544,79.8674828 L58.7876608,60.9066304 C59.0070766,60.609115 59.4143726,60.5170269 59.7403872,60.6923485 C66.3495102,64.2443815 72.8160574,68.0554123 79.1240389,72.1161436 L83.5994102,74.9974388 L70.2359233,100.057357 L14.1236693,97.5483991 L6.61156592,75.5875996 C13.3863612,69.9113419 20.9504314,65.2431833 29.0679269,61.7287824 L30.9258544,60.9243396 C31.2505365,60.7839938 31.6298504,60.8915775 31.8310555,61.1815665 L44.8094544,79.8674828 Z" mask="url(#dailynclexchallenge-H)"/>
        </g>
        <g>
          <mask id="dailynclexchallenge-J" fill="#fff">
            <use xlink:href="#dailynclexchallenge-I"/>
          </mask>
          <path fill="#2C2254" d="M43.5832133,1.54858546 C41.2757944,1.52910529 39.0047967,1.8053696 36.7533421,2.21976608 C35.7628619,2.75679912 34.8532192,3.33146432 34.0599468,3.92118238 C27.1749994,9.03782775 22.7382703,17.5050634 20.7857363,26.2768982 C20.4486178,27.7932529 20.1776793,29.3786736 20.4819299,30.8786471 C20.7866247,32.3786207 21.8010895,33.7767661 23.1948683,33.9928189 C25.1038744,34.2890062 28.2454286,33.0143828 28.2454286,33.0143828 C28.2454286,33.0143828 27.2833748,27.9229731 27.8012671,23.717026 C28.3302635,19.4234181 32.5751149,16.1600458 36.4704112,15.3502903 C39.4076511,14.7393211 40.8671658,16.042722 45.3638568,15.2418211 C48.5462739,14.6751251 56.148542,9.16179251 56.7805838,4.64681894 C52.5219634,3.01756784 48.2224802,1.58754581 43.5832133,1.54858546" mask="url(#dailynclexchallenge-J)"/>
        </g>
        <g>
          <mask id="dailynclexchallenge-L" fill="#fff">
            <use xlink:href="#dailynclexchallenge-K"/>
          </mask>
          <path fill="#2C2254" d="M61.9898875,27.3865156 C63.1753545,28.2746346 64.7290314,29.1065267 66.3209062,28.7124958 C67.5268047,28.4140949 68.4097977,27.4511544 68.7602411,26.4399562 C69.1111287,25.4287579 69.015634,24.3697447 68.8548475,23.3492491 C67.8581491,17.0137645 64.4056819,11.0793945 59.1348174,6.64012797 C53.5534841,1.93920727 53.7888897,12.5328813 54.1988507,14.8979518 C55.0307652,19.6980443 57.7428153,24.2063769 61.9898875,27.3865156" mask="url(#dailynclexchallenge-L)"/>
        </g>
        <g>
          <mask id="dailynclexchallenge-N" fill="#fff">
            <use xlink:href="#dailynclexchallenge-M"/>
          </mask>
          <path fill="#E7C9C4" d="M59.7243974,27.4494278 L61.299394,26.9008837 C62.5252797,26.4745335 63.8799723,26.6405577 64.965503,27.3506987 C66.1243203,28.1086546 66.8305371,29.3908044 66.8491919,30.7725687 C66.86607,32.0223991 66.5365022,33.2523066 65.8964655,34.3277009 L65.6663898,34.7142053 C65.1831421,35.5266172 64.4365067,36.1508683 63.5504045,36.4842449 L63.2039585,36.6144079 C62.3942521,36.919007 61.5090383,36.9654938 60.6713497,36.7463419 L58.5509227,36.1920423 L59.7243974,27.4494278 Z" mask="url(#dailynclexchallenge-N)"/>
        </g>
        <g>
          <mask id="dailynclexchallenge-P" fill="#fff">
            <use xlink:href="#dailynclexchallenge-O"/>
          </mask>
          <path fill="#D1CFD0" d="M23.5228816,91.1353037 C22.9041646,91.2721077 22.2916659,90.8825042 22.15442,90.2657795 L20.8996638,84.6187421 C20.762862,84.0020174 21.15328,83.391491 21.7719969,83.254687 C22.3907139,83.1183258 23.0036568,83.5074866 23.1404585,84.1242112 L24.3952147,89.7712487 C24.5320165,90.3879733 24.1415985,90.9984998 23.5228816,91.1353037" mask="url(#dailynclexchallenge-P)"/>
        </g>
        <g>
          <mask id="dailynclexchallenge-R" fill="#fff">
            <use xlink:href="#dailynclexchallenge-Q"/>
          </mask>
          <path fill="#F2F2F3" d="M14.9556282,88.7826297 L15.0728868,88.752524 C19.7006054,87.5558214 24.369631,86.5247002 29.0715246,85.661817 L31.242586,85.2633588 L32.3418857,92.5343346 L32.7411869,95.3895086 L31.8182193,95.634339 C30.0144795,96.1124888 28.1885316,96.5038632 26.3465938,96.8066914 L24.3594153,97.1329844 C23.2183644,97.3207024 22.0830877,97.5425108 20.9553616,97.797524 L17.2204076,98.642698 L16.0185066,94.3384645 C15.51083,92.518839 15.1550567,90.6606958 14.9556282,88.7826297" mask="url(#dailynclexchallenge-R)"/>
        </g>
      </g>
      <g transform="translate(0 .254)">
        <path fill="#AEB7DE" d="M22.5508341,42.0102839 L17.8125193,38.4215042 L17.8125193,29.4030681 C17.8125193,28.0168764 16.6852374,26.8932244 15.2945678,26.8932244 L2.51781826,26.8932244 C1.12759278,26.8932244 0.000310913046,28.0168764 0.000310913046,29.4030681 L0.000310913046,44.4306958 C0.000310913046,45.8168874 1.12759278,46.9405394 2.51781826,46.9405394 L15.2945678,46.9405394 C16.6852374,46.9405394 17.8125193,45.8168874 17.8125193,44.4306958 L17.8125193,42.0102839 L22.5508341,42.0102839 Z"/>
        <mask id="dailynclexchallenge-T" fill="#fff">
          <use xlink:href="#dailynclexchallenge-S"/>
        </mask>
        <path fill="#5577BA" d="M7.62492037,42.269326 L9.4712997,42.269326 L9.4712997,40.5037137 L7.62492037,40.5037137 L7.62492037,42.269326 Z M7.62492037,38.4839736 C7.62492037,36.3141476 10.1015649,35.9697026 10.1015649,34.4285551 C10.1015649,33.7254978 9.4712997,33.1866938 8.64560348,33.1866938 C7.78970428,33.1866938 7.03907136,33.8149295 7.03907136,33.8149295 L5.98862942,32.5132996 C5.98862942,32.5132996 7.02441403,31.4361344 8.81083156,31.4361344 C10.5070843,31.4361344 12.0834134,32.4831938 12.0834134,34.2492489 C12.0834134,36.7179185 9.4712997,37.002152 9.4712997,38.6185639 L9.4712997,39.2020837 L7.62492037,39.2020837 L7.62492037,38.4839736 Z" mask="url(#dailynclexchallenge-T)"/>
      </g>
    </g>
    <g transform="translate(40 40)">
      <g transform="translate(0 7.707)">
        <mask id="dailynclexchallenge-V" fill="#fff">
          <use xlink:href="#dailynclexchallenge-U"/>
        </mask>
        <path fill="#F8DFE3" d="M100.717,51.61425 C100.0475,79.42225 76.962,101.42275 49.154,100.75325 C21.346,100.08375 -0.6545,76.99875 0.015,49.19025 C0.6845,21.38225 23.7695,-0.61775 51.578,0.05175 C79.386,0.72075 101.386,23.80625 100.717,51.61425" mask="url(#dailynclexchallenge-V)"/>
      </g>
      <g transform="translate(0 7.707)">
        <mask id="dailynclexchallenge-X" fill="#fff">
          <use xlink:href="#dailynclexchallenge-W"/>
        </mask>
        <path fill="#83B7AF" d="M88.3244,85.79835 C88.3244,89.94585 86.3794,104.63385 83.0004,107.94085 C76.5129,114.28935 64.7394,106.72385 51.2924,106.72385 C38.5094,106.72385 27.2394,114.69885 20.5849,108.86685 C16.5914,105.36785 14.2599,90.83935 14.2599,86.29835 C14.2599,74.18935 30.8399,62.87335 51.2924,62.87335 C71.7444,62.87335 88.3244,73.68935 88.3244,85.79835" mask="url(#dailynclexchallenge-X)"/>
        <g>
          <mask id="dailynclexchallenge-Z" fill="#fff">
            <use xlink:href="#dailynclexchallenge-Y"/>
          </mask>
          <path fill="#77B1A9" d="M80.321,80.76805 C83.6645,88.55355 84.401,97.13505 84.498,105.59255 C86.9475,100.23655 88.3245,89.28755 88.3245,85.79855 C88.3245,76.14705 77.786,67.32255 63.1535,64.13655 C70.551,67.69455 76.967,72.95905 80.321,80.76805" mask="url(#dailynclexchallenge-Z)"/>
        </g>
        <g>
          <mask id="dailynclexchallenge-ab" fill="#fff">
            <use xlink:href="#dailynclexchallenge-aa"/>
          </mask>
          <path fill="#E3BFB9" d="M70.38155,66.2778 C70.38155,66.2778 63.05605,63.5338 61.04205,62.9883 L60.40255,62.8148 L60.40255,47.6328 L39.04105,40.4618 L39.04105,62.5098 L29.42755,67.6168 L43.53255,81.6678 C46.66805,84.7913 51.02705,86.3663 55.43505,85.9678 C62.15205,85.3603 67.63155,80.3333 68.81405,73.6943 L70.38155,66.2778 Z" mask="url(#dailynclexchallenge-ab)"/>
        </g>
      </g>
      <g transform="translate(9 .207)">
        <path fill="#2C2254" d="M41.66525,54 C41.46225,54.1965 41.18275,54.327 40.81875,54.3285 C39.84325,54.3325 38.86425,54.3515 37.88425,54.3655 C40.87225,54.6035 43.75325,54.164 46.51575,53.254 C44.91575,53.5805 43.29425,53.8265 41.66525,54"/>
        <path fill="#BE6E31" d="M10.85175,36.50315 C11.69525,35.33715 12.82075,34.38265 14.46175,33.76115 C25.89175,29.42965 35.34125,38.85615 32.92825,50.34815 C31.19425,58.61015 24.74925,61.29465 19.34275,59.86815 C17.57975,59.40215 16.31125,57.90315 14.94775,56.79565 C13.50425,55.62315 11.51975,54.99515 10.32725,53.54765 C7.54425,50.16965 6.80375,46.76515 8.31975,42.30365 C9.04125,40.17915 9.67125,38.13465 10.85175,36.50315"/>
        <path fill="#9E5727" d="M18.91915,32.74025 C20.34615,33.49825 21.66415,34.48975 22.82915,35.55125 C27.70315,39.99375 31.35465,54.01175 22.96965,56.94125 C19.72265,58.07575 15.79665,57.10475 12.51415,55.25725 C13.34865,55.74875 14.21765,56.20275 14.94815,56.79575 C16.31115,57.90325 17.57965,59.40225 19.34315,59.86825 C24.74915,61.29475 31.19415,58.61025 32.92865,50.34825 C35.01865,40.39425 28.20715,31.99725 18.91915,32.74025"/>
        <path fill="#BE6E31" d="M35.70725,51.77295 C41.51575,51.73895 47.58725,50.89095 53.00925,48.70745 L59.38625,38.77295 C59.38625,38.77295 59.38675,38.77245 59.38775,38.77145 C62.05825,35.16395 63.89175,30.99545 64.69275,26.57895 C65.50225,22.11545 66.11625,17.09945 64.07475,12.92695 C61.41675,7.49245 57.65525,5.19095 52.15325,2.93595 C47.73425,1.12445 42.91125,0.21795 38.13575,0.29795 C37.68025,0.30545 37.22475,0.32145 36.77025,0.34545 C30.75075,0.66345 24.16125,3.85445 19.63925,8.21245 C15.07475,13.54095 12.52075,20.76345 12.93075,27.75295 C13.35275,34.93595 17.49075,41.64945 22.41275,46.67445 C24.84675,49.15945 27.33625,50.88495 30.81975,51.47995 C32.30325,51.73345 33.81075,51.81645 35.32275,51.83495 C35.44075,51.79945 35.56575,51.77345 35.70725,51.77295"/>
        <path fill="#9E5727" d="M55.71115,43.48435 C45.34665,48.33235 28.74915,51.90035 19.41465,43.25185 C20.36165,44.45985 21.36715,45.60735 22.41265,46.67435 C24.84665,49.15985 27.33615,50.88485 30.81965,51.47985 C32.30365,51.73385 33.81065,51.81685 35.32315,51.83485 C35.44065,51.79935 35.56565,51.77385 35.70715,51.77285 C41.51565,51.73885 47.58715,50.89085 53.00965,48.70735 L56.65515,43.02785 C56.34065,43.18435 56.02565,43.33735 55.71115,43.48435"/>
        <path fill="#DDB9B6" d="M30.54365,50.37255 C32.55815,55.86855 37.46415,63.00105 43.33915,64.88205 C46.22765,65.80605 49.02665,65.14855 51.40265,63.64655 L51.40265,55.13305 L30.04115,47.96155 L30.04115,49.69555 C30.25415,49.85105 30.43315,50.07155 30.54365,50.37255"/>
        <path fill="#E9CCC7" d="M60.91915,18.3264 C61.43615,19.0909 61.72515,19.9874 61.75215,20.9099 L62.35015,41.3624 L62.35015,50.0544 C62.35015,51.0484 62.27415,52.0409 62.12315,53.0229 C61.82465,54.9639 60.91465,56.7589 59.52665,58.1479 C58.37765,59.2964 56.94665,60.1214 55.37665,60.5399 L54.60515,60.7459 C51.03665,61.6974 47.30565,61.8699 43.66465,61.2524 L41.83115,60.9414 C38.29565,60.3419 35.06465,58.5704 32.65815,55.9114 C31.86265,55.0329 31.25065,54.0034 30.85815,52.8849 L27.96215,44.6239 L25.03515,24.9899 C24.51965,21.5339 25.09365,18.0034 26.67615,14.8884 C29.59715,9.1389 35.54815,5.5649 41.99565,5.6874 L43.78115,5.7214 C49.25315,5.8254 54.33265,8.5849 57.39815,13.1189 L60.91915,18.3264 Z"/>
        <path fill="#E7C9C4" d="M61.75215,20.91015 C61.72515,19.98715 61.43615,19.09115 60.91915,18.32665 L57.39815,13.11915 C54.33265,8.58515 49.25315,5.82565 43.78115,5.72165 L41.99565,5.68765 C38.92765,5.62915 35.97665,6.41615 33.40665,7.86765 C33.73815,9.39315 34.27115,10.84515 35.03315,12.21715 C35.07215,12.26115 35.11265,12.30015 35.14815,12.35065 C37.76965,16.06465 41.34765,18.96715 45.42315,20.96315 C48.38715,22.41515 51.84665,23.05765 54.50215,25.09665 C60.17065,29.44915 58.81965,38.79415 58.75265,45.05915 C58.67915,51.84615 56.40565,58.07865 49.83215,60.96915 C49.28165,61.21215 48.72115,61.41815 48.15565,61.60765 C50.32715,61.59165 52.49465,61.30865 54.60515,60.74615 L55.37665,60.54015 C56.94615,60.12165 58.37765,59.29615 59.52615,58.14765 C60.91465,56.75915 61.82465,54.96365 62.12315,53.02315 C62.27465,52.04065 62.35015,51.04815 62.35015,50.05465 L62.35015,41.36265 L61.75215,20.91015 Z"/>
        <path stroke="#BE9997" stroke-linecap="round" stroke-width=".5" d="M51.2419,31.25415 L52.5059,35.90415 C53.0854,38.03465 53.9219,40.08665 54.9994,42.01415 L56.0169,43.83665 C56.2654,44.28065 56.1034,44.84215 55.6569,45.08615 C53.9949,45.99465 52.1064,46.40415 50.2169,46.26515 L49.9449,46.24515"/>
        <path fill="#BE6E31" d="M63.45625,21.1809 C59.84175,22.6374 55.85275,22.8734 52.09075,21.8584 C49.09175,21.0494 45.78075,20.1249 44.37075,19.6189 C42.60925,18.9874 40.95275,18.0939 39.45725,16.9689 L34.31225,13.0979 L35.45975,16.2409 C36.06225,17.8914 36.31675,19.6484 36.20725,21.4019 C36.06675,23.6574 35.32825,25.8354 34.06825,27.7119 C31.72275,31.2034 28.98925,34.4184 25.92075,37.2949 L23.65425,39.4199 L20.88575,18.5924 L26.91125,6.6904 L38.04975,2.1879 L54.03675,4.3219 L63.45575,14.5439 L63.45625,21.1809 Z"/>
        <path fill="#E9CCC7" d="M29.24485,34.51975 L27.50935,33.91375 C26.15935,33.44225 24.66685,33.62575 23.47085,34.41025 C22.19385,35.24825 21.41685,36.66575 21.39635,38.19225 C21.37785,39.57325 21.74035,40.93325 22.44485,42.12075 L22.69885,42.54875 C23.23185,43.44625 24.05335,44.13575 25.02985,44.50425 L25.41135,44.64825 C26.30385,44.98525 27.27835,45.03625 28.20135,44.79375 L30.53735,44.18125 L29.24485,34.51975 Z"/>
        <path fill="#777677" d="M45.49485,27.82445 C44.83535,28.02995 44.22235,28.23045 43.62485,28.45595 C43.02785,28.67995 42.45935,28.94095 41.90985,29.23095 C41.36135,29.52095 40.82435,29.83495 40.31535,30.21045 C39.78735,30.56795 39.31435,30.99795 38.75485,31.41795 C38.96835,30.76445 39.31385,30.14095 39.79235,29.63145 C40.25235,29.10395 40.82235,28.66795 41.44585,28.34545 C42.06785,28.01545 42.74535,27.79845 43.43385,27.70245 C44.11985,27.60495 44.82935,27.61495 45.49485,27.82445"/>
        <path fill="#BE9997" d="M53.65985,51.7251 L44.14235,48.9176 C43.90235,50.0546 44.43935,51.3346 45.11885,52.2246 C47.07485,54.7826 51.69385,53.8851 53.65985,51.7251"/>
        <path fill="#502F18" d="M57.58615 36.75465C56.89915 36.78665 56.31465 36.23115 56.28115 35.51365L56.23665 34.56015C56.20265 33.84265 56.73315 33.23465 57.42065 33.20265 58.10815 33.17065 58.69215 33.72615 58.72565 34.44365L58.77015 35.39765C58.80415 36.11465 58.27365 36.72265 57.58615 36.75465M43.4372 37.28395C42.6967 37.30945 42.0747 36.72945 42.0497 35.98845L42.0157 35.00345C41.9902 34.26295 42.5702 33.64145 43.3112 33.61645 44.0517 33.59045 44.6732 34.17045 44.6987 34.91145L44.7327 35.89645C44.7582 36.63745 44.1777 37.25845 43.4372 37.28395"/>
        <path fill="#BE6E31" d="M38.1633,26.75705 C36.2198,31.47105 32.7498,35.36455 29.3433,39.15855 C31.7243,34.78055 32.4608,29.53305 31.3773,24.66905 C30.9548,22.77205 30.2663,20.93005 30.0358,19.00005 C29.5833,15.21155 33.1168,9.68105 37.3433,12.71405 C41.1078,15.41505 39.5823,23.31405 38.1633,26.75705"/>
        <path fill="#EA9BA9" d="M17.2995,40.27685 C17.8585,41.37335 18.4675,42.40785 19.172,43.37535 C19.883,44.33785 20.687,45.22385 21.5525,46.04535 C23.2775,47.70485 25.2645,49.06735 27.3325,50.38285 C26.1645,50.00135 25.047,49.46935 23.989,48.83235 C22.9285,48.19835 21.9385,47.44135 21.0355,46.58785 C20.145,45.72235 19.3265,44.77035 18.6875,43.70035 C18.048,42.63385 17.5645,41.47585 17.2995,40.27685"/>
        <path fill="#F4CFD4" d="M11.69745 62.83595L1.08945 62.83595C.65545 62.83595.30345 63.18745.30345 63.62195.30345 64.05595.65545 64.40845 1.08945 64.40845L11.69745 64.40845C12.13195 64.40845 12.48395 64.05595 12.48395 63.62195 12.48395 63.18745 12.13195 62.83595 11.69745 62.83595M6.7116 66.06885L1.0896 66.06885C.6556 66.06885.3036 66.42085.3036 66.85485.3036 67.28935.6556 67.64185 1.0896 67.64185L6.7116 67.64185C7.1461 67.64185 7.4976 67.28935 7.4976 66.85485 7.4976 66.42085 7.1461 66.06885 6.7116 66.06885M10.10325 69.30225L1.08975 69.30225C.65525 69.30225.30325 69.65425.30325 70.08825.30325 70.52225.65525 70.87475 1.08975 70.87475L10.10325 70.87475C10.53725 70.87475 10.88925 70.52225 10.88925 70.08825 10.88925 69.65425 10.53725 69.30225 10.10325 69.30225"/>
        <path fill="#978BC1" d="M70.1496,48.63965 C71.3636,48.03365 73.0896,46.33615 73.0576,45.33715 L73.0576,40.89415 C73.0576,40.06815 73.7271,39.39915 74.5531,39.39915 L83.0451,39.39915 C83.8706,39.39915 84.5396,40.06815 84.5396,40.89415 L84.5396,48.44965 C84.5396,49.27515 83.8706,49.94465 83.0451,49.94465 L74.5531,49.94465 C73.7271,49.94465 73.0576,49.27515 73.0576,48.44965 L73.0576,47.84915 C72.1386,48.37965 70.9896,48.63965 70.1496,48.63965"/>
        <polyline stroke="#FEFEFE" stroke-linecap="round" stroke-linejoin="round" stroke-width=".75" points="76.51 44.955 77.915 46.361 81.587 42.69"/>
        <path fill="#AEB7DE" d="M68.38155,67.62305 L64.97855,68.27505 L65.63005,64.87155 L73.31705,57.18455 C73.87105,56.63105 74.76805,56.63105 75.32155,57.18455 L76.06905,57.93205 C76.62205,58.48555 76.62205,59.38305 76.06905,59.93605 L68.38155,67.62305 Z"/>
        <path fill="#9DAAD7" d="M66.07395,68.06495 L68.38145,67.62295 L76.06895,59.93595 C76.59895,59.40645 76.61545,58.56495 76.13095,58.00795 C72.77845,61.36045 69.42645,64.71295 66.07395,68.06495"/>
        <path stroke="#BCB4D9" stroke-linecap="round" stroke-width=".75" d="M64.79805,70.4487 L72.52455,70.4487"/>
      </g>
    </g>
    <g transform="translate(164 87)">
      <use fill="#000" filter="url(#dailynclexchallenge-ac)" xlink:href="#dailynclexchallenge-ad"/>
      <use fill="#FFF" xlink:href="#dailynclexchallenge-ad"/>
      <rect width="109.5" height="30" x="155.5" fill="#2D7FF9" rx="2.5"/>
    </g>
    <rect width="140" height="10" x="226" y="257" fill="#2E2E2E" fill-rule="nonzero" rx="2.036"/>
    <rect width="300" height="6" x="146" y="287" fill="#2E2E2E" fill-rule="nonzero" opacity=".1" rx="2.036"/>
    <rect width="278" height="6" x="146" y="307" fill="#2E2E2E" fill-rule="nonzero" opacity=".1" rx="2.036"/>
    <rect width="290" height="6" x="146" y="327" fill="#2E2E2E" fill-rule="nonzero" opacity=".1" rx="2.036"/>
  </g>
</svg>
