<?xml version="1.0" encoding="UTF-8"?>
<svg width="51px" height="51px" viewBox="0 0 51 51" version="1.1" xmlns="http://www.w3.org/2000/svg" xmlns:xlink="http://www.w3.org/1999/xlink">
    <!-- Generator: Sketch 50.2 (55047) - http://www.bohemiancoding.com/sketch -->
    <title>email1</title>
    <desc>Created with Sketch.</desc>
    <defs></defs>
    <g id="Page-1" stroke="none" stroke-width="1" fill="none" fill-rule="evenodd">
        <g id="email1" fill="#F1C40F" fill-rule="nonzero">
            <path d="M50.822,22.8056452 C50.822,9.07086694 39.7386331,0.225 25.822,0.225 C12.0054677,0.225 0.822,11.4063508 0.822,25.225 C0.822,39.0414315 12.0033508,50.225 25.822,50.225 C31.1572823,50.225 36.3745202,48.5033266 40.6502258,45.3539315 C41.2047621,44.9454637 41.2977056,44.1519153 40.8614153,43.6189516 L39.3267379,41.744254 C38.9179677,41.2448589 38.1927661,41.1592742 37.6706895,41.5385081 C34.2440766,44.0271169 30.0798629,45.3862903 25.822,45.3862903 C14.7050645,45.3862903 5.66070968,36.3419355 5.66070968,25.225 C5.66070968,14.1080645 14.7050645,5.06370968 25.822,5.06370968 C36.8571815,5.06370968 45.9832903,11.6181452 45.9832903,22.8056452 C45.9832903,29.1671371 41.7012339,32.7139113 37.6143387,32.7139113 C35.6481089,32.7139113 35.5848024,31.4417339 35.9645403,29.5422379 L38.8497218,14.5667339 C38.9934718,13.8205645 38.4217984,13.1282258 37.6619194,13.1282258 L33.7128266,13.1282258 C33.1328636,13.1284399 32.6345873,13.540076 32.5249234,14.1095766 C32.4138347,14.6864919 32.3574839,14.9498992 32.2950847,15.5201613 C31.0931694,13.5495968 28.6783508,12.3883065 25.7223024,12.3883065 C18.5046613,12.3883065 12.1123226,18.6876008 12.1123226,27.7985887 C12.1123226,33.9638105 15.4265363,38.0919355 21.5054677,38.0919355 C24.5098024,38.0919355 27.6893387,36.3950605 29.5446815,33.8339718 C29.9625242,36.9434476 32.4173629,37.665625 35.5297621,37.665625 C45.5263347,37.6655242 50.822,31.2518145 50.822,22.8056452 Z M23.2111129,32.6191532 C20.3409516,32.6191532 18.6274435,30.6576613 18.6274435,27.3721774 C18.6274435,21.5743952 22.6153468,17.9558468 26.1486129,17.9558468 C29.1849032,17.9558468 30.7323831,20.1264113 30.7323831,23.1554435 C30.7323831,27.8796371 27.3879274,32.6191532 23.2111129,32.6191532 Z"></path>
        </g>
    </g>
</svg>