<?xml version="1.0" encoding="UTF-8"?>
<svg width="51px" height="51px" viewBox="0 0 51 51" version="1.1" xmlns="http://www.w3.org/2000/svg" xmlns:xlink="http://www.w3.org/1999/xlink">
    <!-- Generator: Sketch 50.2 (55047) - http://www.bohemiancoding.com/sketch -->
    <title>@</title>
    <desc>Created with Sketch.</desc>
    <defs></defs>
    <g id="Page-1" stroke="none" stroke-width="1" fill="none" fill-rule="evenodd" opacity="0.5">
        <g id="asset-1" transform="translate(-165.177602, -191.774527)" fill="#FFFFFF" fill-rule="nonzero">
            <g id="@" transform="translate(166.000000, 192.000000)">
                <path d="M50,22.5806452 C50,8.84586694 38.9166331,0 25,0 C11.1834677,0 0,11.1813508 0,25 C0,38.8164315 11.1813508,50 25,50 C30.3352823,50 35.5525202,48.2783266 39.8282258,45.1289315 C40.3827621,44.7204637 40.4757056,43.9269153 40.0394153,43.3939516 L38.5047379,41.519254 C38.0959677,41.0198589 37.3707661,40.9342742 36.8486895,41.3135081 C33.4220766,43.8021169 29.2578629,45.1612903 25,45.1612903 C13.8830645,45.1612903 4.83870968,36.1169355 4.83870968,25 C4.83870968,13.8830645 13.8830645,4.83870968 25,4.83870968 C36.0351815,4.83870968 45.1612903,11.3931452 45.1612903,22.5806452 C45.1612903,28.9421371 40.8792339,32.4889113 36.7923387,32.4889113 C34.8261089,32.4889113 34.7628024,31.2167339 35.1425403,29.3172379 L38.0277218,14.3417339 C38.1714718,13.5955645 37.5997984,12.9032258 36.8399194,12.9032258 L32.8908266,12.9032258 C32.3108636,12.9034399 31.8125873,13.315076 31.7029234,13.8845766 C31.5918347,14.4614919 31.5354839,14.7248992 31.4730847,15.2951613 C30.2711694,13.3245968 27.8563508,12.1633065 24.9003024,12.1633065 C17.6826613,12.1633065 11.2903226,18.4626008 11.2903226,27.5735887 C11.2903226,33.7388105 14.6045363,37.8669355 20.6834677,37.8669355 C23.6878024,37.8669355 26.8673387,36.1700605 28.7226815,33.6089718 C29.1405242,36.7184476 31.5953629,37.440625 34.7077621,37.440625 C44.7043347,37.4405242 50,31.0268145 50,22.5806452 Z M22.3891129,32.3941532 C19.5189516,32.3941532 17.8054435,30.4326613 17.8054435,27.1471774 C17.8054435,21.3493952 21.7933468,17.7308468 25.3266129,17.7308468 C28.3629032,17.7308468 29.9103831,19.9014113 29.9103831,22.9304435 C29.9103831,27.6546371 26.5659274,32.3941532 22.3891129,32.3941532 Z" id="Shape"></path>
            </g>
        </g>
    </g>
</svg>