<?xml version="1.0" encoding="UTF-8"?>
<svg width="51px" height="50px" viewBox="0 0 51 50" version="1.1" xmlns="http://www.w3.org/2000/svg" xmlns:xlink="http://www.w3.org/1999/xlink">
    <!-- Generator: Sketch 50.2 (55047) - http://www.bohemiancoding.com/sketch -->
    <title>github1</title>
    <desc>Created with Sketch.</desc>
    <defs></defs>
    <g id="Page-1" stroke="none" stroke-width="1" fill="none" fill-rule="evenodd">
        <g id="github1" fill="#F1C40F" fill-rule="nonzero">
            <path d="M17.5457903,40.1797283 C17.5457903,40.382372 17.3139355,40.544487 17.0215968,40.544487 C16.6889355,40.5748836 16.4570806,40.4127686 16.4570806,40.1797283 C16.4570806,39.9770846 16.6889355,39.8149697 16.9812742,39.8149697 C17.2836935,39.7845731 17.5457903,39.9466881 17.5457903,40.1797283 Z M14.4107097,39.72378 C14.3401452,39.9264237 14.5417581,40.159464 14.8441774,40.2202571 C15.1062742,40.3215789 15.4086935,40.2202571 15.4691774,40.0176134 C15.5296613,39.8149697 15.338129,39.5819294 15.0357097,39.4907398 C14.7736129,39.4198145 14.4812742,39.5211363 14.4107097,39.72378 Z M18.8663548,39.5515329 C18.5740161,39.6224582 18.3724032,39.8149697 18.4026452,40.0480099 C18.4328871,40.2506536 18.6949839,40.382372 18.9974032,40.3114467 C19.2897419,40.2405215 19.4913548,40.0480099 19.4611129,39.8453662 C19.430871,39.6528547 19.1586935,39.5211363 18.8663548,39.5515329 Z M25.4994194,0.725 C11.5175645,0.725 0.822,11.3941908 0.822,25.4475314 C0.822,36.6841245 7.85829032,46.2995681 17.9086935,49.6837179 C19.1990161,49.9167581 19.6526452,49.1163155 19.6526452,48.4577235 C19.6526452,47.829528 19.6224032,44.3643207 19.6224032,42.2365619 C19.6224032,42.2365619 12.5659516,43.7563896 11.0840968,39.2171708 C11.0840968,39.2171708 9.93490323,36.2687049 8.28167742,35.5087911 C8.28167742,35.5087911 5.97320968,33.918038 8.44296774,33.9484346 C8.44296774,33.9484346 10.9530484,34.1510783 12.3340968,36.5625383 C14.5417581,40.4735617 18.2413548,39.3488892 19.6828871,38.680165 C19.9147419,37.0590154 20.5699839,35.9343428 21.2957903,35.2656186 C15.6607097,34.6374232 9.97522581,33.8167162 9.97522581,24.0695542 C9.97522581,21.2832033 10.7413548,19.8849618 12.3542581,18.1016973 C12.0921613,17.4431052 11.2353065,14.7276797 12.6163548,11.2219436 C14.7232097,10.5633516 19.572,13.9576336 19.572,13.9576336 C21.588129,13.3902312 23.7554677,13.0963979 25.9026452,13.0963979 C28.0498226,13.0963979 30.2171613,13.3902312 32.2332903,13.9576336 C32.2332903,13.9576336 37.0820806,10.5532194 39.1889355,11.2219436 C40.5699839,14.7378118 39.713129,17.4431052 39.4510323,18.1016973 C41.0639355,19.895094 42.0518387,21.2933355 42.0518387,24.0695542 C42.0518387,33.8471127 36.1143387,34.627291 30.4792581,35.2656186 C31.4066774,36.0660612 32.1929677,37.585889 32.1929677,39.9669525 C32.1929677,43.3814988 32.1627258,47.6066199 32.1627258,48.4374591 C32.1627258,49.0960511 32.6264355,49.8964937 33.9066774,49.6634535 C43.9873226,46.2995681 50.822,36.6841245 50.822,25.4475314 C50.822,11.3941908 39.4812742,0.725 25.4994194,0.725 Z M10.6203871,35.670906 C10.4893387,35.7722279 10.5195806,36.0052681 10.6909516,36.1977796 C10.8522419,36.3598946 11.0840968,36.4308199 11.2151452,36.2991015 C11.3461935,36.1977796 11.3159516,35.9647394 11.1445806,35.7722279 C10.9832903,35.6101129 10.7514355,35.5391876 10.6203871,35.670906 Z M9.53167742,34.850199 C9.4611129,34.9819174 9.56191935,35.1440324 9.76353226,35.2453543 C9.92482258,35.3466761 10.1264355,35.3162795 10.197,35.174429 C10.2675645,35.0427106 10.1667581,34.8805956 9.96514516,34.7792737 C9.76353226,34.7184806 9.60224194,34.7488772 9.53167742,34.850199 Z M12.7978065,38.4572569 C12.6365161,38.5889753 12.697,38.8929409 12.9288548,39.0854524 C13.1607097,39.3184926 13.4530484,39.3488892 13.5840968,39.1867742 C13.7151452,39.0550558 13.6546613,38.7510903 13.4530484,38.5585787 C13.2312742,38.3255385 12.9288548,38.2951419 12.7978065,38.4572569 Z M11.6486129,36.9678257 C11.4873226,37.0691476 11.4873226,37.3325844 11.6486129,37.5656246 C11.8099032,37.7986649 12.0820806,37.8999867 12.213129,37.7986649 C12.3744194,37.6669465 12.3744194,37.4035097 12.213129,37.1704694 C12.072,36.9374291 11.8099032,36.8361073 11.6486129,36.9678257 Z"></path>
        </g>
    </g>
</svg>