<?xml version="1.0" encoding="UTF-8"?>
<svg width="51px" height="50px" viewBox="0 0 51 50" version="1.1" xmlns="http://www.w3.org/2000/svg" xmlns:xlink="http://www.w3.org/1999/xlink">
    <!-- Generator: Sketch 50.2 (55047) - http://www.bohemiancoding.com/sketch -->
    <title>github</title>
    <desc>Created with Sketch.</desc>
    <defs></defs>
    <g id="Page-1" stroke="none" stroke-width="1" fill="none" fill-rule="evenodd" opacity="0.5">
        <g id="asset-1" transform="translate(-85.177602, -191.774527)" fill="#FFFFFF" fill-rule="nonzero">
            <g id="github" transform="translate(86.000000, 192.500000)">
                <path d="M16.7237903,39.4547283 C16.7237903,39.657372 16.4919355,39.819487 16.1995968,39.819487 C15.8669355,39.8498836 15.6350806,39.6877686 15.6350806,39.4547283 C15.6350806,39.2520846 15.8669355,39.0899697 16.1592742,39.0899697 C16.4616935,39.0595731 16.7237903,39.2216881 16.7237903,39.4547283 Z M13.5887097,38.99878 C13.5181452,39.2014237 13.7197581,39.434464 14.0221774,39.4952571 C14.2842742,39.5965789 14.5866935,39.4952571 14.6471774,39.2926134 C14.7076613,39.0899697 14.516129,38.8569294 14.2137097,38.7657398 C13.9516129,38.6948145 13.6592742,38.7961363 13.5887097,38.99878 Z M18.0443548,38.8265329 C17.7520161,38.8974582 17.5504032,39.0899697 17.5806452,39.3230099 C17.6108871,39.5256536 17.8729839,39.657372 18.1754032,39.5864467 C18.4677419,39.5155215 18.6693548,39.3230099 18.6391129,39.1203662 C18.608871,38.9278547 18.3366935,38.7961363 18.0443548,38.8265329 Z M24.6774194,0 C10.6955645,0 0,10.6691908 0,24.7225314 C0,35.9591245 7.03629032,45.5745681 17.0866935,48.9587179 C18.3770161,49.1917581 18.8306452,48.3913155 18.8306452,47.7327235 C18.8306452,47.104528 18.8004032,43.6393207 18.8004032,41.5115619 C18.8004032,41.5115619 11.7439516,43.0313896 10.2620968,38.4921708 C10.2620968,38.4921708 9.11290323,35.5437049 7.45967742,34.7837911 C7.45967742,34.7837911 5.15120968,33.193038 7.62096774,33.2234346 C7.62096774,33.2234346 10.1310484,33.4260783 11.5120968,35.8375383 C13.7197581,39.7485617 17.4193548,38.6238892 18.8608871,37.955165 C19.0927419,36.3340154 19.7479839,35.2093428 20.4737903,34.5406186 C14.8387097,33.9124232 9.15322581,33.0917162 9.15322581,23.3445542 C9.15322581,20.5582033 9.91935484,19.1599618 11.5322581,17.3766973 C11.2701613,16.7181052 10.4133065,14.0026797 11.7943548,10.4969436 C13.9012097,9.83835162 18.75,13.2326336 18.75,13.2326336 C20.766129,12.6652312 22.9334677,12.3713979 25.0806452,12.3713979 C27.2278226,12.3713979 29.3951613,12.6652312 31.4112903,13.2326336 C31.4112903,13.2326336 36.2600806,9.82821944 38.3669355,10.4969436 C39.7479839,14.0128118 38.891129,16.7181052 38.6290323,17.3766973 C40.2419355,19.170094 41.2298387,20.5683355 41.2298387,23.3445542 C41.2298387,33.1221127 35.2923387,33.902291 29.6572581,34.5406186 C30.5846774,35.3410612 31.3709677,36.860889 31.3709677,39.2419525 C31.3709677,42.6564988 31.3407258,46.8816199 31.3407258,47.7124591 C31.3407258,48.3710511 31.8044355,49.1714937 33.0846774,48.9384535 C43.1653226,45.5745681 50,35.9591245 50,24.7225314 C50,10.6691908 38.6592742,0 24.6774194,0 Z M9.7983871,34.945906 C9.66733871,35.0472279 9.69758065,35.2802681 9.86895161,35.4727796 C10.0302419,35.6348946 10.2620968,35.7058199 10.3931452,35.5741015 C10.5241935,35.4727796 10.4939516,35.2397394 10.3225806,35.0472279 C10.1612903,34.8851129 9.92943548,34.8141876 9.7983871,34.945906 Z M8.70967742,34.125199 C8.6391129,34.2569174 8.73991935,34.4190324 8.94153226,34.5203543 C9.10282258,34.6216761 9.30443548,34.5912795 9.375,34.449429 C9.44556452,34.3177106 9.34475806,34.1555956 9.14314516,34.0542737 C8.94153226,33.9934806 8.78024194,34.0238772 8.70967742,34.125199 Z M11.9758065,37.7322569 C11.8145161,37.8639753 11.875,38.1679409 12.1068548,38.3604524 C12.3387097,38.5934926 12.6310484,38.6238892 12.7620968,38.4617742 C12.8931452,38.3300558 12.8326613,38.0260903 12.6310484,37.8335787 C12.4092742,37.6005385 12.1068548,37.5701419 11.9758065,37.7322569 Z M10.8266129,36.2428257 C10.6653226,36.3441476 10.6653226,36.6075844 10.8266129,36.8406246 C10.9879032,37.0736649 11.2600806,37.1749867 11.391129,37.0736649 C11.5524194,36.9419465 11.5524194,36.6785097 11.391129,36.4454694 C11.25,36.2124291 10.9879032,36.1111073 10.8266129,36.2428257 Z" id="Shape"></path>
            </g>
        </g>
    </g>
</svg>