<?xml version="1.0" encoding="UTF-8"?>
<svg width="51px" height="51px" viewBox="0 0 51 51" version="1.1" xmlns="http://www.w3.org/2000/svg" xmlns:xlink="http://www.w3.org/1999/xlink">
    <!-- Generator: Sketch 50.2 (55047) - http://www.bohemiancoding.com/sketch -->
    <title>linkedin1</title>
    <desc>Created with Sketch.</desc>
    <defs></defs>
    <g id="Page-1" stroke="none" stroke-width="1" fill="none" fill-rule="evenodd">
        <g id="linkedin1" fill="#F1C40F" fill-rule="nonzero">
            <path d="M47.2505714,0.225 L4.38226786,0.225 C2.41798214,0.225 0.822,1.84330357 0.822,3.82991071 L0.822,46.6200893 C0.822,48.6066964 2.41798214,50.225 4.38226786,50.225 L47.2505714,50.225 C49.2148571,50.225 50.822,48.6066964 50.822,46.6200893 L50.822,3.82991071 C50.822,1.84330357 49.2148571,0.225 47.2505714,0.225 Z M15.9336071,43.0821429 L8.52289286,43.0821429 L8.52289286,19.2205357 L15.9447679,19.2205357 L15.9447679,43.0821429 L15.9336071,43.0821429 Z M12.22825,15.9616071 C9.85101786,15.9616071 7.931375,14.0308036 7.931375,11.6647321 C7.931375,9.29866071 9.85101786,7.36785714 12.22825,7.36785714 C14.5943214,7.36785714 16.525125,9.29866071 16.525125,11.6647321 C16.525125,14.0419643 14.6054821,15.9616071 12.22825,15.9616071 Z M43.712625,43.0821429 L36.3019107,43.0821429 L36.3019107,31.475 C36.3019107,28.7071429 36.2461071,25.146875 32.4514643,25.146875 C28.5898571,25.146875 27.9983393,28.1602679 27.9983393,31.2741071 L27.9983393,43.0821429 L20.587625,43.0821429 L20.587625,19.2205357 L27.697,19.2205357 L27.697,22.4794643 L27.7974464,22.4794643 C28.79075,20.6044643 31.212625,18.6290179 34.8175357,18.6290179 C42.3175357,18.6290179 43.712625,23.5732143 43.712625,30.0017857 L43.712625,43.0821429 Z"></path>
        </g>
    </g>
</svg>