<svg xmlns="http://www.w3.org/2000/svg" xmlns:xlink="http://www.w3.org/1999/xlink" width="593" height="345" viewBox="0 0 593 345">
  <defs>
    <polygon id="movie-vue-a" points="0 0 434 0 434 344 0 344"/>
    <polygon id="movie-vue-c" points="0 0 434 0 434 294 0 294"/>
    <polygon id="movie-vue-e" points="0 0 434 0 434 344 0 344"/>
    <polygon id="movie-vue-g" points="0 0 434 0 434 294 0 294"/>
    <polygon id="movie-vue-i" points="0 0 434 0 434 294 0 294"/>
    <polygon id="movie-vue-k" points="0 0 434 0 434 344 0 344"/>
    <polygon id="movie-vue-m" points="0 0 434 0 434 294 0 294"/>
    <circle id="movie-vue-o" cx="16" cy="16" r="16"/>
  </defs>
  <g fill="none" fill-rule="evenodd" transform="translate(.822 .225)">
    <rect width="592" height="344" fill="#F9F8F5" rx="6"/>
    <rect width="50" height="10" x="452" y="19" fill="#C1CBD7" fill-rule="nonzero" rx="2.036"/>
    <rect width="80" height="10" x="452" y="40" fill="#E3E7ED" fill-rule="nonzero" rx="2.036"/>
    <g fill-rule="nonzero" transform="translate(452 80)">
      <path fill="#E3E7ED" d="M16,2 L80,2 L80,6 L16,6 L16,2 Z M16,18 L70,18 L70,22 L16,22 L16,18 Z"/>
      <circle cx="4.5" cy="4.5" r="4.5" fill="#000"/>
      <circle cx="4.5" cy="20.5" r="4.5" fill="#000"/>
    </g>
    <g transform="translate(452 112)">
      <path fill="#E3E7ED" fill-rule="nonzero" d="M16,2 L100,2 L100,6 L16,6 L16,2 Z M16,18 L60,18 L60,22 L16,22 L16,18 Z"/>
      <polygon fill="#C1CBD7" points="16 34 60 34 60 38 16 38"/>
      <circle cx="4.5" cy="4.5" r="4.5" fill="#000" fill-rule="nonzero"/>
      <circle cx="4.5" cy="20.5" r="4.5" fill="#000" fill-rule="nonzero"/>
      <circle cx="4.5" cy="36.5" r="4.5" fill="#FFF" fill-rule="nonzero" stroke="#C1CBD7"/>
    </g>
    <rect width="304" height="31" x="64" y="133" fill="#FFF" fill-rule="nonzero" rx="3"/>
    <polygon fill="#2E2E2E" fill-rule="nonzero" points="0 0 434 0 434 344 0 344"/>
    <mask id="movie-vue-b" fill="#fff">
      <use xlink:href="#movie-vue-a"/>
    </mask>
    <path fill="#000" fill-rule="nonzero" d="M216.36,247.04 C193.66,236.94 167.06,247.14 156.96,269.84 C146.84,292.54 157.06,319.14 179.76,329.26 L187.89,310.99 C175.26,305.36 169.59,290.59 175.21,277.97 C180.81,265.37 195.61,259.69 208.21,265.3 L216.35,247.04 L216.36,247.04 Z" mask="url(#movie-vue-b)"/>
    <mask id="movie-vue-d" fill="#fff">
      <use xlink:href="#movie-vue-c"/>
    </mask>
    <path fill="#000" fill-rule="nonzero" d="M31.22,147.82 C45.12,127.22 39.69,99.24 19.08,85.35 C-1.52,71.45 -29.5,76.9 -43.4,97.5 L-26.8,108.67 C-19.1,97.23 -3.55,94.21 7.9,101.93 C19.34,109.65 22.36,125.19 14.64,136.63 L31.22,147.83 L31.22,147.82 Z" mask="url(#movie-vue-d)"/>
    <mask id="movie-vue-f" fill="#fff">
      <use xlink:href="#movie-vue-e"/>
    </mask>
    <path fill="#000" fill-rule="nonzero" d="M-23.5,345.64 C-9.96,366.48 17.9,372.41 38.75,358.87 C59.6,345.33 65.52,317.47 51.99,296.62 L35.19,307.52 C42.72,319.09 39.43,334.58 27.85,342.1 C16.27,349.62 0.79,346.33 -6.73,334.75 L-23.5,345.65 L-23.5,345.64 Z" mask="url(#movie-vue-f)"/>
    <g>
      <mask id="movie-vue-h" fill="#fff">
        <use xlink:href="#movie-vue-g"/>
      </mask>
      <path fill="#000" fill-rule="nonzero" d="M171.78,72.3 C194.82,81.6 221.05,70.47 230.36,47.43 C239.66,24.39 228.54,-1.84 205.5,-11.15 L198,7.4 C210.8,12.56 217,27.13 211.82,39.94 C206.65,52.74 192.07,58.92 179.27,53.74 L171.77,72.29 L171.78,72.3 Z" mask="url(#movie-vue-h)"/>
    </g>
    <g>
      <mask id="movie-vue-j" fill="#fff">
        <use xlink:href="#movie-vue-i"/>
      </mask>
      <path fill="#000" fill-rule="nonzero" d="M329.9,64.47 C321.4,87.82 333.45,113.64 356.8,122.14 C380.16,130.64 405.98,118.6 414.48,95.24 L395.68,88.41 C390.98,101.39 376.62,108.08 363.64,103.36 C350.67,98.64 343.98,84.29 348.7,71.32 L329.9,64.49 L329.9,64.47 Z" mask="url(#movie-vue-j)"/>
    </g>
    <g>
      <mask id="movie-vue-l" fill="#fff">
        <use xlink:href="#movie-vue-k"/>
      </mask>
      <path fill="#000" fill-rule="nonzero" d="M366.28,284.66 C370.58,309.13 393.93,325.46 418.41,321.16 C442.89,316.84 459.23,293.5 454.91,269.03 L435.21,272.5 C437.61,286.1 428.54,299.06 414.94,301.46 C401.34,303.86 388.38,294.78 385.98,281.18 L366.28,284.66 Z" mask="url(#movie-vue-l)"/>
    </g>
    <g>
      <mask id="movie-vue-n" fill="#fff">
        <use xlink:href="#movie-vue-m"/>
      </mask>
      <polygon points="0 0 434 0 434 294 0 294" mask="url(#movie-vue-n)"/>
    </g>
    <rect width="304" height="31" x="65" y="116" fill="#FFF" fill-rule="nonzero" rx="3"/>
    <rect width="100" height="31" x="269" y="197" fill="#00A2E6" fill-rule="nonzero" rx="3"/>
    <rect width="52" height="5" x="293" y="210" fill="#000" fill-rule="nonzero" opacity=".297" rx="1"/>
    <rect width="60" height="5" x="78" y="129" fill="#E9E8E4" fill-rule="nonzero" opacity=".7" rx="1"/>
    <g transform="translate(65 20)">
      <mask id="movie-vue-p" fill="#fff">
        <use xlink:href="#movie-vue-o"/>
      </mask>
      <use fill="#C5C5C5" xlink:href="#movie-vue-o"/>
      <g fill="#FFF" stroke="#FFF" stroke-linecap="round" stroke-linejoin="round" stroke-width="2.286" mask="url(#movie-vue-p)">
        <g transform="translate(6.857 11.429)">
          <path d="M18.2857143,20.5714286 L18.2857143,18.2857143 C18.2857143,15.760984 16.239016,13.7142857 13.7142857,13.7142857 L4.57142857,13.7142857 C2.04669829,13.7142857 0,15.760984 0,18.2857143 L0,20.5714286"/>
          <circle cx="9.143" cy="4.571" r="4.571"/>
        </g>
      </g>
    </g>
  </g>
</svg>
