<svg xmlns="http://www.w3.org/2000/svg" width="592" height="344" viewBox="0 0 592 344">
  <g fill="none" fill-rule="evenodd">
    <rect width="592" height="344" fill="#F4F6F8"/>
    <rect width="160" height="100" x="396" y="126" fill="#FFF" fill-rule="nonzero" rx="3"/>
    <rect width="160" height="100" x="216" y="126" fill="#FFF" fill-rule="nonzero" rx="3"/>
    <circle cx="257" cy="167" r="31" fill="#4294D4"/>
    <rect width="62" height="10" x="298" y="162" fill="#C1CBD7" fill-rule="nonzero" rx="2.036"/>
    <rect width="62" height="10" x="478" y="162" fill="#C1CBD7" fill-rule="nonzero" rx="2.036"/>
    <circle cx="437" cy="167" r="31" fill="#FF96F1"/>
    <rect width="160" height="100" x="216" y="246" fill="#FFF" fill-rule="nonzero" rx="3"/>
    <rect width="160" height="100" x="396" y="246" fill="#FFF" fill-rule="nonzero" rx="3"/>
    <rect width="160" height="185" x="36" y="126" fill="#F4F6F8" fill-rule="nonzero" stroke="#E3E7ED" stroke-width="2" rx="3"/>
    <rect width="62" height="10" x="298" y="282" fill="#C1CBD7" fill-rule="nonzero" rx="2.036"/>
    <rect width="62" height="10" x="478" y="282" fill="#C1CBD7" fill-rule="nonzero" rx="2.036"/>
    <circle cx="257" cy="287" r="31" fill="#FF747B"/>
    <circle cx="437" cy="287" r="31" fill="#61DAFF"/>
    <polyline stroke="#181818" stroke-linecap="round" stroke-linejoin="round" stroke-width="2" points="184 191 179.5 187 175 191"/>
    <rect width="140" height="31" x="46" y="136" fill="#FFF" fill-rule="nonzero" rx="3"/>
    <rect width="60" height="5" x="59" y="149" fill="#C1CBD7" fill-rule="nonzero" opacity=".7" rx="1"/>
    <rect width="60" height="5" x="46" y="187" fill="#2E2E2E" fill-rule="nonzero" opacity=".7" rx="1"/>
    <rect width="99" height="4" x="66" y="210" fill="#C1CBD7" fill-rule="nonzero" opacity=".2" rx="1"/>
    <rect width="64" height="4" x="66" y="236" fill="#C1CBD7" fill-rule="nonzero" opacity=".2" rx="1"/>
    <rect width="76" height="4" x="66" y="262" fill="#C1CBD7" fill-rule="nonzero" opacity=".2" rx="1"/>
    <rect width="60" height="4" x="66" y="288" fill="#C1CBD7" fill-rule="nonzero" opacity=".2" rx="1"/>
    <rect width="10" height="10" x="46" y="207" fill="#029688" fill-rule="nonzero" rx="5"/>
    <rect width="8" height="8" x="47" y="234" fill="#F4F6F8" fill-rule="nonzero" stroke="#D3DAE3" stroke-width="2" rx="4"/>
    <rect width="8" height="8" x="47" y="260" fill="#F4F6F8" fill-rule="nonzero" stroke="#D3DAE3" stroke-width="2" rx="4"/>
    <rect width="8" height="8" x="47" y="286" fill="#F4F6F8" fill-rule="nonzero" stroke="#D3DAE3" stroke-width="2" rx="4"/>
    <rect width="592" height="10" fill="#FF747B"/>
    <rect width="50" height="10" x="36" y="40" fill="#2E2E2E" fill-rule="nonzero" rx="2.036"/>
    <rect width="110" height="10" x="36" y="61" fill="#C1CBD7" fill-rule="nonzero" rx="2.036"/>
    <rect width="70" height="10" x="36" y="82" fill="#C1CBD7" fill-rule="nonzero" rx="2.036"/>
    <rect width="70" height="10" x="117" y="82" fill="#C1CBD7" fill-rule="nonzero" rx="2.036"/>
    <rect width="34" height="10" x="157" y="61" fill="#C1CBD7" fill-rule="nonzero" rx="2.036"/>
    <path fill="#79C4FE" d="M426.049143,67 L385.950857,67 C381.007095,67 377,71.0472722 377,76.0389806 L377,97.5764841 C377,102.568919 381.007095,106.615465 385.950857,106.615465 L387.700454,106.615465 C387.502617,107.191571 387.331398,107.753874 387.158021,108.156349 C386.430701,109.851248 385.702662,111.546874 384.973903,113.241774 C384.813475,113.616643 384.650889,114.040912 384.801245,114.42014 C384.952321,114.803 385.38972,115.00569 385.797623,114.999878 C386.204808,114.994067 386.59041,114.823342 386.958746,114.646805 C390.88167,112.771736 394.37367,109.998726 397.131875,106.615465 L426.049143,106.615465 C430.992905,106.615465 435,102.568919 435,97.5764841 L435,76.0389806 C435,71.0472722 430.992905,67 426.049143,67"/>
    <g transform="translate(310 22)">
      <path fill="#FF747B" d="M73.4717371,64.1848445 L6.52713615,64.1848445 C2.92212833,64.1848445 6.25978064e-05,61.2636562 6.25978064e-05,57.6597307 L6.25978064e-05,27.0022718 C6.25978064e-05,23.3983464 2.92212833,20.477158 6.52713615,20.477158 L73.4717371,20.477158 C77.0761189,20.477158 79.9981847,23.3983464 79.9981847,27.0022718 L79.9981847,57.6597307 C79.9981847,61.2636562 77.0761189,64.1848445 73.4717371,64.1848445"/>
      <path stroke="#FF747B" stroke-linecap="round" stroke-width="1.878" d="M73.4717371,64.1848445 L6.52713615,64.1848445 C2.92212833,64.1848445 6.25978064e-05,61.2636562 6.25978064e-05,57.6597307 L6.25978064e-05,27.0022718 C6.25978064e-05,23.3983464 2.92212833,20.477158 6.52713615,20.477158 L73.4717371,20.477158 C77.0761189,20.477158 79.9981847,23.3983464 79.9981847,27.0022718 L79.9981847,57.6597307 C79.9981847,61.2636562 77.0761189,64.1848445 73.4717371,64.1848445 Z"/>
      <path fill="#514860" d="M44.8980908,22.7403281 C44.8980908,25.9806694 42.2708607,28.6071106 39.0295462,28.6071106 C35.7882316,28.6071106 33.1610016,25.9806694 33.1610016,22.7403281 C33.1610016,19.4999867 35.7882316,16.8735455 39.0295462,16.8735455 C42.2708607,16.8735455 44.8980908,19.4999867 44.8980908,22.7403281"/>
      <path fill="#FFF" d="M37.4841315,34.014 L37.4841315,41.4214779 C35.2932081,43.1424008 26.0600313,43.4552958 21.2087011,41.516598 L21.2087011,26.4807383 L21.2087011,10.6520025 C21.2087011,6.99488498 24.1745853,4.02926551 27.8334272,4.02926551 L36.8644131,4.02926551 C39.6700469,4.02926551 41.9442254,6.30338687 41.9442254,9.10817827 L41.9442254,22.2691707 C41.9492332,26.502641 41.1467293,31.2098344 37.8922692,33.7198787 L37.4841315,34.014 Z"/>
      <path stroke="#1D1D1B" stroke-linecap="round" stroke-width="1.252" d="M41.9442474,9.97577372 L41.9442254,22.269421 C41.9504851,27.6975247 40.6290454,33.9066144 34.5107355,35.2608243 C31.9842879,35.8196549 29.2562754,35.4085108 27.0071362,34.1306473"/>
      <path stroke="#1D1D1B" stroke-linecap="round" stroke-width="1.252" d="M21.2087011,26.4809886 L21.2087011,41.5162225 C26.0600313,43.4555462 35.2932081,43.1426511 37.4841315,41.4217282 L37.4841315,34.0686941"/>
      <path fill="#528FFA" d="M22.8106416,21.3909368 C25.2945227,17.9290658 26.3624413,13.482201 25.7226917,9.27063339 C29.027856,10.7205891 32.572144,11.615469 36.17277,11.8657851 C38.5877934,12.0334969 41.1937402,11.8632819 43.1211268,10.4001846 C44.7323944,9.17676487 45.6532081,7.08912897 45.4328638,5.07909104 C45.2131455,3.06905312 43.8428795,1.2173401 41.970579,0.451998755 C40.1633803,-0.287059399 38.0970266,-0.02172438 36.229108,0.547118856 C34.3605634,1.1153363 32.5821596,1.97266879 30.6816901,2.42010874 C28.8187793,2.85878763 26.8876369,2.8925803 24.9884194,3.12912897 C23.0898279,3.36567764 21.1505477,3.83689762 19.6388106,5.00962834 C17.9248826,6.34005817 16.942097,8.47337676 16.7355243,10.6329785 C16.5289515,12.7919545 17.0416275,14.9734589 17.8967136,16.9666005 C18.7949922,19.0611201 20.5640063,21.0041985 22.8106416,21.3909368"/>
      <path fill="#1D1D1B" d="M30.2658529 19.5581852C30.2658529 20.065701 29.8539593 20.4774709 29.3462911 20.4774709 28.8386228 20.4774709 28.4267293 20.065701 28.4267293 19.5581852 28.4267293 19.0506694 28.8386228 18.6388995 29.3462911 18.6388995 29.8539593 18.6388995 30.2658529 19.0506694 30.2658529 19.5581852M39.9489202 19.5581852C39.9489202 20.065701 39.5370266 20.4774709 39.0293584 20.4774709 38.5216901 20.4774709 38.1097966 20.065701 38.1097966 19.5581852 38.1097966 19.0506694 38.5216901 18.6388995 39.0293584 18.6388995 39.5370266 18.6388995 39.9489202 19.0506694 39.9489202 19.5581852"/>
      <path stroke="#1D1D1B" stroke-linecap="round" stroke-width="1.252" d="M34.3273239,14.1690057 C35.3094836,17.5326277 36.296025,20.913146 36.7285759,24.390036 C36.7692645,24.7148211 36.7961815,25.0740247 36.6021283,25.3374823 C36.4080751,25.6003142 36.0556495,25.6810411 35.7332707,25.7348591 C34.4518936,25.9476277 33.1479812,26.0277288 31.8503286,25.9732851"/>
      <path fill="#565656" d="M27.2291706,14.8666366 C26.9687637,14.9448603 26.703975,15.0381031 26.5005321,15.2189564 C26.2970892,15.4004355 26.1681377,15.688299 26.247011,15.9486277 C26.3215023,16.1958148 26.5650078,16.3610234 26.816651,16.4167187 C27.0682942,16.4724141 27.3299531,16.4379956 27.5853521,16.4035771 C28.4855086,16.2815481 29.3856651,16.159519 30.2858216,16.0381157 C30.7565571,15.9749109 31.4232238,15.8497529 31.5083568,15.2740259 C31.5728326,14.835347 31.2122692,14.5950436 30.8297966,14.4999235 C29.731831,14.2264532 28.2858216,14.5487352 27.2291706,14.8666366"/>
      <path fill="#1D1D1B" d="M32.7260094,29.2252661 C32.8737402,29.2334014 32.936338,29.4117516 32.821784,29.5049943 C32.394867,29.8523079 31.9391549,30.1664545 31.4202191,30.3429273 C30.7685759,30.5638312 29.9961189,30.5237807 29.4577778,30.0951144 C29.0252269,29.7509299 28.42241,28.7302661 28.7297653,28.1564166 C28.9000313,27.8372636 29.1923631,27.8910816 29.4903286,28.014988 C30.6308607,28.4880854 31.4358685,29.1533003 32.7260094,29.2252661"/>
      <path fill="#FFF" d="M71.0692958,64.2890386 C71.6401878,63.3791397 72.0808764,62.382256 72.348169,61.3165354 L76.4251643,45.0829134 C76.5084194,44.7506189 76.7575587,44.4765228 77.0899531,44.3895379 C77.949421,44.1636277 79.1387793,43.3475974 79.7804069,42.7324457 L82.5935524,40.0352902 L85.5093584,37.4701764 C85.7816588,37.2311245 85.8142097,36.8193546 85.5838498,36.5402522 C85.3891706,36.3055809 85.0611581,36.2311119 84.7844757,36.3593989 L81.8642879,37.7136087 C81.776025,37.7549109 81.6958998,37.6447718 81.7616275,37.5734318 L85.3747731,33.6497276 C85.6984038,33.2986593 85.6232864,32.7392029 85.2176526,32.4863837 C84.9365884,32.3105367 84.5735211,32.3368199 84.32,32.5514659 L80.4207825,35.8525089 C80.3412833,35.9194684 80.2311111,35.8187162 80.290579,35.7336087 L83.7159311,30.8599551 C83.9969953,30.4594495 83.8793114,29.9043736 83.4592801,29.6521802 C83.1156182,29.4456694 82.6730516,29.5107516 82.4020031,29.8073761 L78.0984038,34.5777744 C78.0326761,34.6509918 77.9143662,34.5790259 77.949421,34.4870348 L79.6877621,29.9100057 C79.8599061,29.4168831 79.5638185,28.8837099 79.0536463,28.7685645 C78.690579,28.6872118 78.3149922,28.8442851 78.1184351,29.1609349 L75.0035681,34.1860297 L73.9744601,35.5671486 C73.747856,35.8706568 73.291518,35.866902 73.0705477,35.5590133 L72.6129577,34.9207074 C72.3613146,34.5702649 72.2261033,34.1497339 72.2261033,33.7179387 L72.2261033,32.00828 C72.2261033,31.5971359 71.9231299,31.2498224 71.5162441,31.1935013 C71.1143662,31.1371802 70.7312676,31.3831157 70.6148357,31.7717314 L70.4176526,32.4281852 C69.6595931,34.9551258 69.5638185,37.6310044 70.1347105,40.199873 C70.2154617,40.5609539 70.177903,40.9376795 70.0107668,41.2668452 L68.4088889,44.4233306 C66.1046635,48.9615607 64.1090454,53.6499804 62.434554,58.4560487 C62.434554,58.4560487 56.5359624,51.6993926 52.1422222,49.2300247 L45.8980908,64.2890386 L71.0692958,64.2890386 Z"/>
      <path stroke="#1D1D1B" stroke-linecap="round" stroke-width="1.252" d="M71.0692958 64.2890386C71.6401878 63.3791397 72.0808764 62.382256 72.348169 61.3165354L76.4251643 45.0829134C76.5084194 44.7506189 76.7575587 44.4765228 77.0899531 44.3895379 77.949421 44.1636277 79.1387793 43.3475974 79.7804069 42.7324457L82.5935524 40.0352902 85.5093584 37.4701764C85.7816588 37.2311245 85.8142097 36.8193546 85.5838498 36.5402522 85.3891706 36.3055809 85.0611581 36.2311119 84.7844757 36.3593989L81.8642879 37.7136087C81.776025 37.7549109 81.6958998 37.6447718 81.7616275 37.5734318L85.3747731 33.6497276C85.6984038 33.2986593 85.6232864 32.7392029 85.2176526 32.4863837 84.9365884 32.3105367 84.5735211 32.3368199 84.32 32.5514659L80.4207825 35.8525089C80.3412833 35.9194684 80.2311111 35.8187162 80.290579 35.7336087L83.7159311 30.8599551C83.9969953 30.4594495 83.8793114 29.9043736 83.4592801 29.6521802 83.1156182 29.4456694 82.6730516 29.5107516 82.4020031 29.8073761L78.0984038 34.5777744C78.0326761 34.6509918 77.9143662 34.5790259 77.949421 34.4870348L79.6877621 29.9100057C79.8599061 29.4168831 79.5638185 28.8837099 79.0536463 28.7685645 78.690579 28.6872118 78.3149922 28.8442851 78.1184351 29.1609349L75.0035681 34.1860297 73.9744601 35.5671486C73.747856 35.8706568 73.291518 35.866902 73.0705477 35.5590133L72.6129577 34.9207074C72.3613146 34.5702649 72.2261033 34.1497339 72.2261033 33.7179387L72.2261033 32.00828C72.2261033 31.5971359 71.9231299 31.2498224 71.5162441 31.1935013 71.1143662 31.1371802 70.7312676 31.3831157 70.6148357 31.7717314L70.4176526 32.4281852C69.6595931 34.9551258 69.5638185 37.6310044 70.1347105 40.199873 70.2154617 40.5609539 70.177903 40.9376795 70.0107668 41.2668452L68.4088889 44.4233306C66.1046635 48.9615607 64.1090454 53.6499804 62.434554 58.4560487 62.434554 58.4560487 56.5359624 51.6993926 52.1422222 49.2300247L45.8980908 64.2890386 71.0692958 64.2890386zM76.5839124 34.6089387C78.3197496 35.4199627 79.8615336 36.6427567 81.0471362 38.1477819"/>
      <path fill="#3C3C3B" d="M57.3470423,50.7615209 C52.3611268,46.488 46.896338,42.8139861 41.0252895,39.8708951 C40.5558059,39.635598 40.0074491,39.6330948 39.5229421,39.8364766 C33.2813146,42.4510278 26.0055712,42.5111037 19.7232551,39.99355 C19.3507981,39.8446119 18.9407825,39.8158256 18.5558059,39.9297194 C16.182097,40.6318559 13.8321753,41.4416283 11.5774022,42.4597889 C9.13483568,43.5630569 6.82247261,45.0436764 5.06222222,47.0649785 C3.13984351,49.2733919 1.95173709,52.0418875 1.23874804,54.8810974 C0.970203443,55.9493211 0.768638498,57.0313123 0.604632238,58.1195613 C0.516995305,58.7040493 0.591486698,59.31044 0.848763693,59.8423616 C1.25377152,60.6796688 1.82090767,61.400579 2.50259781,62.0263692 C4.00494523,63.4049848 6.02435055,64.0808382 8.06378717,64.0808382 L51.8528326,64.0808382 C54.7135524,60.7497573 56.8143349,56.7196688 57.8734898,52.4736827 C58.0299844,51.8472668 57.8371831,51.1814261 57.3470423,50.7615209"/>
      <path stroke="#FFF" stroke-linecap="round" stroke-width=".626" d="M47.5789671,64.2890386 C47.0011894,62.0568452 46.211831,59.8797213 45.2227856,57.7964659"/>
      <path stroke="#1D1D1B" stroke-linecap="round" stroke-width="1.252" d="M18.6433803,26.8721075 L18.6433803,37.7452111 C18.7685759,40.6532579 19.2549609,43.7208812 20.7153678,46.2390607 C22.53759,49.381153 25.7983099,51.3467598 28.622723,53.6327712 C30.9112989,55.4857358 33.0170892,57.6810076 34.1807825,60.3856726 C34.7767136,61.7717977 35.0715493,62.9388964 35.2249139,64.4295285"/>
      <path fill="#1D1D1B" d="M22.8378091,5.32145956 C24.1292019,3.94284389 26.0002504,3.06047979 28.1072926,2.83707271 C28.7338967,2.75884894 30.0659781,2.56547979 30.6813146,2.42029648 C31.6202817,2.19939256 32.5292019,1.87773643 33.4343662,1.54106133 C31.5138654,0.98160495 29.6603443,0.786358427 27.9094836,0.970340727 C25.354241,1.24068207 23.0656651,2.33080849 21.4669171,4.03858978 C19.5163693,6.12059357 18.8221596,8.85216753 18.583662,10.7764722 C18.2882003,13.1588553 18.4903912,15.5399867 18.6856964,17.8422687 C18.7276369,18.3316366 19.1376526,18.7014785 19.6202817,18.7014785 C19.6471987,18.7014785 19.6734898,18.7002269 19.7010329,18.6977238 C20.2174648,18.6545443 20.6005634,18.2002206 20.5567449,17.683318 C20.3695775,15.4774077 20.1761502,13.1957769 20.4478247,11.0073888 C20.6518936,9.35968333 21.2328013,7.03549876 22.8378091,5.32145956"/>
      <path fill="#724EDC" d="M25.3558059,22.7403281 C25.3558059,25.9806694 22.7285759,28.6071106 19.4872613,28.6071106 C16.2459468,28.6071106 13.6187167,25.9806694 13.6187167,22.7403281 C13.6187167,19.4999867 16.2459468,16.8735455 19.4872613,16.8735455 C22.7285759,16.8735455 25.3558059,19.4999867 25.3558059,22.7403281"/>
      <path stroke="#FF747B" stroke-linecap="round" stroke-width="1.878" d="M0,50.7303565 L0,57.6597307 C0,61.2636562 2.92206573,64.1848445 6.52707355,64.1848445 L73.4716745,64.1848445 C77.0760563,64.1848445 79.9981221,61.2636562 79.9981221,57.6597307 L79.9981221,50.7303565"/>
    </g>
  </g>
</svg>
