<svg xmlns="http://www.w3.org/2000/svg" width="592" height="344" viewBox="0 0 592 344">
  <defs>
    <linearGradient id="servicelibrary-a" x1="50%" x2="50%" y1="0%" y2="100%">
      <stop offset="0%" stop-color="#02A0D8"/>
      <stop offset="100%" stop-color="#0167B0"/>
    </linearGradient>
  </defs>
  <g fill="none" fill-rule="evenodd">
    <rect width="592" height="344" fill="#F3F3F3"/>
    <rect width="120" height="344" fill="#202225"/>
    <path fill="#E3E7ED" fill-rule="nonzero" d="M20 63L84 63 84 67 20 67 20 63zM20 79L74 79 74 83 20 83 20 79zM20 275L68 275 68 279 20 279 20 275zM20 291L82 291 82 295 20 295 20 291z"/>
    <rect width="80" height="20" x="20" y="105" fill="#E3E7ED" rx="4"/>
    <g transform="translate(20 137)">
      <rect width="80" height="20" fill="#E3E7ED" rx="4"/>
      <polyline stroke="#202225" stroke-linecap="round" stroke-linejoin="round" stroke-width="2" points="0 .5 5 5.5 10 .5" transform="translate(65 7)"/>
    </g>
    <g transform="translate(20 169)">
      <rect width="80" height="20" fill="#E3E7ED" rx="4"/>
      <polyline stroke="#202225" stroke-linecap="round" stroke-linejoin="round" stroke-width="2" points="0 .5 5 5.5 10 .5" transform="translate(65 7)"/>
    </g>
    <g transform="translate(20 201)">
      <rect width="80" height="20" fill="#E3E7ED" rx="4"/>
      <polyline stroke="#202225" stroke-linecap="round" stroke-linejoin="round" stroke-width="2" points="0 .5 5 5.5 10 .5" transform="translate(65 7)"/>
    </g>
    <g transform="translate(20 233)">
      <rect width="80" height="20" fill="#E3E7ED" rx="4"/>
      <polyline stroke="#202225" stroke-linecap="round" stroke-linejoin="round" stroke-width="2" points="0 .5 5 5.5 10 .5" transform="translate(65 7)"/>
    </g>
    <g stroke="#202225" stroke-linecap="round" stroke-linejoin="round" stroke-width="2" transform="translate(85 110)">
      <circle cx="4.444" cy="4.444" r="4.444"/>
      <path d="M10,10 L7.58333333,7.58333333"/>
    </g>
    <circle cx="25" cy="312" r="5" fill="#008002"/>
    <circle cx="47" cy="312" r="5" fill="#008002"/>
    <rect width="472" height="50" x="120" fill="#0167B0"/>
    <rect width="472" height="30" x="120" y="45" fill="#FFF"/>
    <rect width="14" height="14" x="130" y="53" fill="#D8D8D8" rx="2"/>
    <rect width="14" height="14" x="152" y="53" fill="#D8D8D8" rx="2"/>
    <rect width="100" height="18" x="462" y="51" fill="#F3F3F3" rx="2"/>
    <g stroke="#202225" stroke-linecap="round" stroke-linejoin="round" stroke-width="2" transform="translate(548 55)">
      <circle cx="4.444" cy="4.444" r="4.444"/>
      <path d="M10,10 L7.58333333,7.58333333"/>
    </g>
    <rect width="120" height="269" x="120" y="75" fill="#FAFAFA"/>
    <rect width="89" height="10" x="130" y="91" fill="#D8D8D8" fill-rule="nonzero" rx="2.036"/>
    <rect width="70" height="10" x="130" y="112" fill="#D8D8D8" fill-rule="nonzero" rx="2.036"/>
    <rect width="70" height="10" x="130" y="175" fill="#D8D8D8" fill-rule="nonzero" rx="2.036"/>
    <rect width="62" height="10" x="130" y="196" fill="#D8D8D8" fill-rule="nonzero" rx="2.036"/>
    <rect width="73" height="10" x="130" y="154" fill="#D8D8D8" fill-rule="nonzero" rx="2.036"/>
    <rect width="84" height="10" x="130" y="133" fill="#D8D8D8" fill-rule="nonzero" rx="2.036"/>
    <rect width="151" height="80" x="270" y="105" fill="#FFF"/>
    <rect width="110" height="10" x="286" y="121" fill="#0167B0" fill-rule="nonzero" rx="2.036"/>
    <rect width="80" height="6" x="286" y="143" fill="#E3E7ED" fill-rule="nonzero" rx="2.036"/>
    <rect width="96" height="6" x="286" y="163" fill="#E3E7ED" fill-rule="nonzero" rx="2.036"/>
    <rect width="121" height="239" x="441" y="105" fill="#FFF"/>
    <rect width="151" height="162" x="270" y="205" fill="#FFF"/>
    <rect width="40" height="10" x="457" y="121" fill="#0167B0" fill-rule="nonzero" rx="2.036"/>
    <rect width="89" height="50" x="457" y="151" fill="#1BBE60" fill-rule="nonzero" rx="2.036"/>
    <polyline stroke="#FFF" stroke-linecap="round" stroke-linejoin="round" stroke-width="3" points="16 0 5 11 0 6" transform="translate(472 167)"/>
    <rect width="89" height="50" x="457" y="221" fill="#1BBE60" fill-rule="nonzero" rx="2.036"/>
    <polyline stroke="#FFF" stroke-linecap="round" stroke-linejoin="round" stroke-width="3" points="488 237 477 248 472 243"/>
    <rect width="90" height="10" x="286" y="221" fill="#0167B0" fill-rule="nonzero" rx="2.036"/>
    <polyline stroke="#DF9CA1" stroke-width="2" points="301.667 271.051 283.815 271.051 283.815 293.648 301.667 293.648 301.667 318.968 283.815 318.968 283.815 332.04 331.284 332.04"/>
    <path stroke="#61A7C4" stroke-width="2" d="M338.433637 259.404409L356.738718 293.693133M335.357053 284.471866L356.974595 294.444885M336.436318 309.50708L356.202479 294.455066M335.828808 333.113455L356.608052 293.940888M384.183914 267.566167L361.968837 293.441431M385.169311 293.987567L362.266907 293.987567"/>
    <rect width="22" height="18" x="294" y="261" fill="url(#servicelibrary-a)"/>
    <rect width="22" height="18" x="376" y="261" fill="url(#servicelibrary-a)"/>
    <rect width="20" height="57" x="350" y="265" fill="#4D4C4D" rx="3"/>
    <rect width="22" height="18" x="376" y="285" fill="url(#servicelibrary-a)"/>
    <rect width="22" height="18" x="322" y="251" fill="url(#servicelibrary-a)"/>
    <rect width="22" height="18" x="322" y="275" fill="url(#servicelibrary-a)"/>
    <rect width="22" height="18" x="322" y="299" fill="url(#servicelibrary-a)"/>
    <rect width="22" height="18" x="322" y="323" fill="url(#servicelibrary-a)"/>
    <rect width="22" height="18" x="294" y="285" fill="url(#servicelibrary-a)"/>
    <rect width="22" height="18" x="294" y="309" fill="url(#servicelibrary-a)"/>
    <g transform="translate(20 10)">
      <polygon fill="#FFF" points="0 25.146 0 28.478 .395 28.478 .395 27.038 2.201 27.038 2.201 26.696 .395 26.696 .395 25.496 2.427 25.496 2.427 25.146"/>
      <polygon fill="#FFF" points="3.406 28.478 3.801 28.478 3.801 25.146 3.406 25.146"/>
      <polygon fill="#FFF" points="7.818 25.146 7.818 25.496 8.947 25.496 8.947 28.478 9.333 28.478 9.333 25.496 10.443 25.496 10.443 25.146"/>
      <polygon fill="#FFF" points="48.611 25.155 48.611 25.506 49.74 25.506 49.74 28.487 50.126 28.487 50.126 25.506 51.236 25.506 51.236 25.155"/>
      <polygon fill="#FFF" points="18.553 25.146 18.553 26.632 16.633 26.632 16.633 25.146 16.248 25.146 16.248 28.478 16.633 28.478 16.633 26.974 18.553 26.974 18.553 28.478 18.938 28.478 18.938 25.146"/>
      <polygon fill="#FFF" points="29.795 25.146 29.795 28.478 32.053 28.478 32.053 28.127 30.19 28.127 30.19 25.146"/>
      <polygon fill="#FFF" points="69.807 25.15 69.807 28.482 72.065 28.482 72.065 28.131 70.203 28.131 70.203 25.15"/>
      <polygon fill="#FFF" points="32.796 25.146 32.796 28.478 35.242 28.478 35.242 28.127 33.173 28.127 33.173 26.974 34.998 26.974 34.998 26.632 33.173 26.632 33.173 25.496 35.205 25.496 35.205 25.146"/>
      <polygon fill="#FFF" points="72.893 25.155 72.893 28.487 75.339 28.487 75.339 28.137 73.27 28.137 73.27 26.983 75.095 26.983 75.095 26.641 73.27 26.641 73.27 25.506 75.302 25.506 75.302 25.155"/>
      <polygon fill="#FFF" points="68.218 28.487 68.603 28.487 68.603 25.146 68.218 25.146"/>
      <path fill="#FFF" d="M6.04019663 25.1457583L4.52547075 28.4780639 4.93009008 28.4780639 5.32285533 27.6104813 7.14883552 27.6104813 7.53606887 28.4780639 7.95942893 28.4780639 6.40710869 25.1457583 6.04019663 25.1457583zM6.24250629 25.5795495L6.996313 27.2687433 5.47763577 27.2687433 6.24250629 25.5795495zM42.7877828 25.1549304L41.2731698 28.4873467 41.6776762 28.4873467 42.0705544 27.6196534 43.8965346 27.6196534 44.2837679 28.4873467 44.7070151 28.4873467 43.1546948 25.1549304 42.7877828 25.1549304zM42.9900924 25.5887216L43.744012 27.2779154 42.2252219 27.2779154 42.9900924 25.5887216z"/>
      <g transform="translate(9.032 .102)">
        <path fill="#FFF" d="M6.05989698 27.6017856L6.33875015 27.8533535C6.02196392 28.2129261 5.55841287 28.4408992 5.04044594 28.4408992 4.08568431 28.4408992 3.31178211 27.6701332 3.31178211 26.7193593 3.31178211 25.7684747 4.08568431 24.9977087 5.04044594 24.9977087 5.53605946 24.9977087 5.98177294 25.2066286 6.29697862 25.5395047L6.04126914 25.8004884C5.55344545 25.2970203 5.03570431 25.3300309 5.03570431 25.3300309 4.29657408 25.3300309 3.69743491 25.9489257 3.69743491 26.7124913 3.69743491 27.4758355 4.29657408 28.0947302 5.03570431 28.0947302 5.03570431 28.0947302 5.57658913 28.1196544 6.05989698 27.6017856M11.4591152 26.7425333L11.4591152 25.3900926 12.5880754 25.3900926C12.5880754 25.3900926 13.3501235 25.4039394 13.3407531 26.0270435 13.3407531 26.0270435 13.4441659 26.677952 12.536369 26.7425333L11.4591152 26.7425333zM12.8232378 27.0286627C12.8232378 27.0286627 13.7546299 26.8810009 13.7311475 26.0593896 13.7311475 26.0593896 13.7828539 25.0900057 12.6445234 25.0439237L11.0828327 25.0439237 11.0828327 28.37634 11.4638568 28.37634 11.4638568 27.093244 12.409361 27.093244 13.3783475 28.37634 13.8487852 28.37634 12.8232378 27.0286627zM27.5750218 26.7425333L27.5750218 25.3900926 28.7039819 25.3900926C28.7039819 25.3900926 29.4660301 25.4039394 29.4566597 26.0270435 29.4566597 26.0270435 29.5600724 26.677952 28.6522756 26.7425333L27.5750218 26.7425333zM28.9391443 27.0286627C28.9391443 27.0286627 29.8705365 26.8810009 29.8470541 26.0593896 29.8470541 26.0593896 29.8987605 25.0900057 28.7604299 25.0439237L27.1987393 25.0439237 27.1987393 28.37634 27.5797634 28.37634 27.5797634 27.093244 28.5252675 27.093244 29.4942541 28.37634 29.9646918 28.37634 28.9391443 27.0286627z"/>
        <polygon fill="#FFF" points="13.952 25.044 14.413 25.044 15.542 26.71 16.662 25.044 17.099 25.044 15.716 27.061 15.716 28.376 15.345 28.376 15.345 27.061"/>
        <path fill="#FFF" d="M19.536035 25.6993738L19.7524567 25.3900926C19.7524567 25.3900926 19.3007597 24.9978417 18.6704612 24.9931891 18.0401628 24.9885366 17.4520874 25.2609301 17.485053 26.0225018 17.5180187 26.7840735 18.4541525 26.779421 19.1597526 27.047162 19.1597526 27.047162 19.507811 27.180977 19.479587 27.4994525 19.451363 27.8179279 19.253795 28.1087099 18.6517205 28.0810164 18.0495331 28.0533228 17.5885787 27.6056848 17.5885787 27.6056848L17.3534163 27.8918142C17.3534163 27.8918142 17.8143707 28.4225328 18.7175389 28.4271853 19.620707 28.4318378 19.860611 27.8501632 19.8558694 27.4532597 19.8512407 27.0563562 19.6394478 26.7517275 18.8256933 26.5440261 18.0119388 26.3363248 17.8660771 26.2393974 17.8660771 25.8101479 17.8660771 25.3808984 18.7081685 25.0439237 19.536035 25.6993738M69.2872893 25.7321519L69.503711 25.4228707C69.503711 25.4228707 69.052014 25.0306197 68.4218284 25.0259672 67.7914171 25.0213147 67.2033417 25.2937081 67.2364203 26.0552799 67.269273 26.8168516 68.2054068 26.8121991 68.9110069 27.07994 68.9110069 27.07994 69.2590653 27.2137551 69.2308413 27.5322305 69.2026173 27.850706 69.0050493 28.1414879 68.4029748 28.1137944 67.8009003 28.0861009 67.339833 27.6384629 67.339833 27.6384629L67.1046706 27.9245923C67.1046706 27.9245923 67.565625 28.4553109 68.4687932 28.4599634 69.3719613 28.4646159 69.6118654 27.8829412 69.6072366 27.4860377 69.602495 27.0891343 69.3907021 26.7845056 68.5770605 26.5768042 67.7631931 26.3691028 67.6174443 26.2721755 67.6174443 25.842926 67.6174443 25.4136764 68.4595357 25.0767017 69.2872893 25.7321519M36.1315803 25.0439237L36.5078627 25.0439237 36.5078627 27.0378569C36.5078627 27.0378569 36.4655267 28.0763638 37.5568925 28.0810164 37.5568925 28.0810164 38.5025096 28.1133624 38.5353623 27.0887022L38.5353623 25.0439237 38.9116448 25.0439237 38.9116448 27.0194684C38.9116448 27.0194684 39.0056871 28.3809925 37.521669 28.4410321 37.521669 28.4410321 36.1786579 28.5241126 36.1315803 27.0563562L36.1315803 25.0439237zM44.1662657 28.0944311C43.4388767 28.0944311 42.8492208 27.4765333 42.8492208 26.7144077 42.8492208 25.9521714 43.4388767 25.3342736 44.1662657 25.3342736 44.8937677 25.3342736 45.4834236 25.898889 45.4834236 26.7144077 45.4834236 27.4765333 44.8937677 28.0944311 44.1662657 28.0944311M44.1545245 24.9881046C43.2141007 24.9881046 42.4517139 25.7609753 42.4517139 26.7141862 42.4517139 27.6673971 43.2141007 28.440157 44.1545245 28.440157 45.0950613 28.440157 45.8573352 27.6673971 45.8573352 26.7141862 45.8573352 25.6942893 45.0950613 24.9881046 44.1545245 24.9881046M52.7346784 28.1231991C52.0072893 28.1231991 51.4176334 27.5053014 51.4176334 26.7431758 51.4176334 25.9809394 52.0072893 25.3630416 52.7346784 25.3630416 53.4621803 25.3630416 54.0518362 25.927657 54.0518362 26.7431758 54.0518362 27.5053014 53.4621803 28.1231991 52.7346784 28.1231991M52.7229372 25.0168726C51.7825133 25.0168726 51.0201265 25.7897433 51.0201265 26.7429542 51.0201265 27.6961651 51.7825133 28.468925 52.7229372 28.468925 53.6634739 28.468925 54.4257478 27.6961651 54.4257478 26.7429542 54.4257478 25.7230573 53.6634739 25.0168726 52.7229372 25.0168726"/>
        <polygon fill="#FFF" points="49.637 25.044 48.4 26.844 47.181 25.044 46.805 25.044 46.805 28.386 47.181 28.386 47.181 25.708 48.4 27.471 49.637 25.703 49.637 28.386 50.013 28.386 50.013 25.044"/>
        <path fill="#FFF" d="M57.0693774,28.0342808 L55.8416332,28.0342813 L55.8416332,26.8664995 L57.0175582,26.8665005 C57.0175582,26.8665005 57.8173135,26.8619588 57.7984599,27.4503907 C57.7796063,28.0389333 57.0693774,28.0342808 57.0693774,28.0342808 Z M55.8416332,25.3803556 L56.8952918,25.3803556 C57.6667103,25.3988549 57.6056335,25.9295734 57.6056335,25.9295734 C57.6056335,26.5111373 56.9469981,26.5249841 56.9469981,26.5249841 L55.8416332,26.5249841 L55.8416332,25.3803556 Z M57.4786255,26.6587991 C57.4786255,26.6587991 58.0241391,26.4327093 57.9912863,25.8234519 C57.9584336,25.2141945 57.2810575,25.0491411 56.9517398,25.0439347 L55.4747212,25.0439347 L55.4747212,28.3855454 L57.0646358,28.3855454 C57.0646358,28.3855454 58.15126,28.366603 58.179484,27.4804104 C58.179484,27.4804104 58.2078209,26.8341545 57.4786255,26.6587991 Z"/>
        <polygon fill="#6286C3" points=".099 18.951 3.989 18.951 3.989 12.859 16.52 12.859 16.52 9.314 3.933 9.314 3.933 5.16 17.127 5.16 17.127 1.449 .099 1.449"/>
        <polygon fill="#6286C3" points="38.253 18.951 42.452 18.951 49.542 7.099 56.486 18.951 60.776 18.951 49.514 .009"/>
        <path fill="#6286C3" d="M35.1493624,12.0279704 C34.3599934,14.4837208 31.9982087,16.2662971 29.2071934,16.2662971 C25.7700741,16.2662971 22.9836875,13.5627452 22.9836875,10.2278918 C22.9836875,6.89303838 25.7700741,4.18948642 29.2071934,4.18948642 C31.9769843,4.18948642 34.3230764,5.94558775 35.1300572,8.37242609 L38.8567547,8.37242609 C37.9665696,3.98987154 33.9850657,0.684484058 29.2070805,0.684484058 C23.7747499,0.684484058 19.3710149,4.95715072 19.3710149,10.2278918 C19.3710149,15.4986328 23.7747499,19.7712995 29.2070805,19.7712995 C34.0050483,19.7712995 37.9999868,16.4379969 38.8677056,12.0279704 L35.1493624,12.0279704 Z"/>
      </g>
    </g>
  </g>
</svg>
