<?xml version="1.0" encoding="UTF-8"?>
<svg width="50px" height="50px" viewBox="0 0 50 50" version="1.1" xmlns="http://www.w3.org/2000/svg" xmlns:xlink="http://www.w3.org/1999/xlink">
    <!-- Generator: Sketch 50.2 (55047) - http://www.bohemiancoding.com/sketch -->
    <title>pixelated</title>
    <desc>Created with Sketch.</desc>
    <defs>
        <circle id="path-1" cx="25" cy="25" r="25"></circle>
    </defs>
    <g id="Page-1" stroke="none" stroke-width="1" fill="none" fill-rule="evenodd">
        <g id="Artboard" transform="translate(-150.000000, -120.000000)">
            <g id="pixelated" transform="translate(150.000000, 120.000000)">
                <mask id="mask-2" fill="white">
                    <use xlink:href="#path-1"></use>
                </mask>
                <use id="Mask" fill="#027E79" xlink:href="#path-1"></use>
                <g mask="url(#mask-2)">
                    <g transform="translate(3.000000, 4.000000)">
                        <g id="shirt" stroke-width="1" fill="none" transform="translate(0.000000, 41.620211)">
                            <rect id="Rectangle-73" fill="#52F2FF" x="0" y="3.73011324" width="18.4642857" height="3.73011324"></rect>
                            <rect id="Rectangle-73" fill="#52F2FF" x="0.982142857" y="2.74850449" width="18.4642857" height="3.73011324"></rect>
                            <rect id="Rectangle-73" fill="#52F2FF" x="1.96428571" y="1.9632175" width="18.4642857" height="3.73011324"></rect>
                            <rect id="Rectangle-73" fill="#52F2FF" x="2.75" y="0.981608748" width="18.4642857" height="3.73011324"></rect>
                            <rect id="Rectangle-73" fill="#52F2FF" x="3.92857143" y="0" width="18.4642857" height="3.73011324"></rect>
                            <rect id="Rectangle-73" fill="#52F2FF" x="24.3571429" y="3.92643499" width="18.6607143" height="2.74850449"></rect>
                            <rect id="Rectangle-73" fill="#52F2FF" x="23.375" y="2.74850449" width="18.6607143" height="2.74850449"></rect>
                            <rect id="Rectangle-73" fill="#52F2FF" x="22.3928571" y="1.9632175" width="18.6607143" height="2.74850449"></rect>
                            <rect id="Rectangle-73" fill="#52F2FF" x="20.625" y="0.981608748" width="18.6607143" height="2.74850449"></rect>
                            <rect id="Rectangle-73" fill="#52F2FF" x="19.6428571" y="0" width="18.6607143" height="2.74850449"></rect>
                        </g>
                        <g id="neck" stroke-width="1" fill="none" transform="translate(17.678571, 38.871706)">
                            <path d="M9.42857143,15.9020617 L8.44642857,15.9020617 L8.44642857,14.920453 L7.46428571,14.920453 L7.46428571,13.9388442 L5.5,13.9388442 L5.5,12.9572355 L4.71428571,12.9572355 L4.71428571,12.1719485 L3.73214286,12.1719485 L3.73214286,11.1903397 L2.94642857,11.1903397 L2.94642857,10.208731 L1.76785714,10.208731 L1.76785714,9.22712223 L0.982142857,9.22712223 L0.982142857,4.51540024 L0.982142857,2.74850449 L0,2.74850449 L0,0 L1.17857143,0 L1.17857143,1.76689575 L10.0178571,1.76689575 L10.0178571,0 L11.1964286,0 L11.1964286,2.74850449 L12.1785714,2.74850449 L12.1785714,9.22712223 L14.3392857,9.22712223 L14.3392857,10.208731 L14.3392857,11.1903397 L14.1428571,11.1903397 L14.1428571,12.1719485 L13.1607143,12.1719485 L13.1607143,12.9572355 L13.1607143,13.9388442 L12.1785714,13.9388442 L12.1785714,14.920453 L12.1785714,15.9020617 L11.1964286,15.9020617 L11.1964286,16.6873487 L9.42857143,16.6873487 L9.42857143,15.9020617 Z" id="Combined-Shape" fill="#EEB67F"></path>
                        </g>
                        <path d="M37.125,24.1475752 L37.125,32.3930887 L37.125,32.7857322 L37.9107143,32.7857322 L37.9107143,39.0680282 L38.8928571,39.0680282 L38.8928571,41.6202109 L37.9107143,41.6202109 L28.6785714,41.6202109 L28.6785714,38.8717064 L27.8928571,38.8717064 L27.8928571,32.3930887 L27.8928571,23.5586099 L36.5357143,23.5586099 L36.5357143,17.8652792 L36.7321429,17.8652792 L36.7321429,14.920453 L38.3035714,14.920453 L38.3035714,18.061601 L37.9107143,18.061601 L37.9107143,24.1475752 L37.125,24.1475752 Z M6.875,39.0680282 L6.875,35.1415932 L5.69642857,35.1415932 L5.69642857,31.4114799 L5.89285714,31.4114799 L5.89285714,24.1475752 L6.875,24.1475752 L6.875,18.6505662 L7.85714286,18.6505662 L7.85714286,14.920453 L8.83928571,14.920453 L8.83928571,6.47861773 L20.8214286,6.47861773 L20.8214286,19.4358532 L17.4821429,19.4358532 L17.4821429,24.3438969 L17.6785714,24.3438969 L17.6785714,41.6202109 L18.6607143,41.6202109 L18.6607143,45.9392894 L12.7678571,45.9392894 L12.7678571,44.7613589 L11.7857143,44.7613589 L11.7857143,41.6202109 L4.51785714,41.6202109 L4.51785714,40.2459587 L5.10714286,40.2459587 L5.10714286,39.6569934 L6.28571429,39.6569934 L6.28571429,39.0680282 L6.875,39.0680282 Z" id="Combined-Shape" fill="#170C04"></path>
                        <polygon id="Rectangle-52" fill="#EEB67F" points="20.4285714 7.46022648 35.3571429 7.46022648 35.3571429 25.7181492 34.5714286 25.7181492 34.5714286 27.6813667 20.4285714 27.8776884"></polygon>
                        <g id="hair-and-face" stroke-width="1" fill="none" transform="translate(9.821429, 0.000000)">
                            <rect id="Rectangle-43" fill="#1F1F1F" x="20.4285714" y="15.70574" width="1" height="1"></rect>
                            <rect id="Rectangle-45" fill="#1F1F1F" x="21.4107143" y="14.920453" width="2.75" height="1"></rect>
                            <rect id="Rectangle-46" fill="#1F1F1F" x="24.1607143" y="15.70574" width="1" height="1"></rect>
                            <rect id="Rectangle-44" fill="#1F1F1F" x="13.75" y="15.70574" width="1" height="1"></rect>
                            <path d="M23.1785714,3.73011324 L23.1785714,4.51540024 L24.1607143,4.51540024 L24.1607143,5.49700899 L25.1428571,5.49700899 L25.1428571,7.46022648 L23.2767857,7.46022648 L21.4107143,7.46022648 L21.4107143,8.24551348 L22.3928571,8.24551348 L22.3928571,11.1903397 L23.1785714,11.1903397 L23.1785714,12.9572355 L24.1607143,12.9572355 L24.1607143,14.920453 L24.1607143,15.70574 L25.1428571,15.70574 L25.1428571,19.4358532 L25.7321429,19.4358532 L25.7321429,24.1475752 L26.7142857,24.1475752 L26.7142857,19.4358532 L26.9107143,19.4358532 L26.9107143,15.70574 L26.9107143,14.920453 L27.8928571,14.920453 L28.875,14.920453 L28.875,13.9388442 L27.8928571,13.9388442 L27.8928571,12.9572355 L27.8928571,11.1903397 L26.9107143,11.1903397 L26.9107143,9.22712223 L26.125,9.22712223 L26.125,8.24551348 L26.125,7.46022648 L23.2767857,7.46022648 L21.4107143,7.46022648 L21.4107143,9.22712223 L21.4107143,10.208731 L20.4285714,10.208731 L20.4285714,11.1903397 L20.2321429,11.1903397 L17.4821429,11.1903397 L17.4821429,11.9756267 L17.6785714,11.9756267 L17.6785714,12.9572355 L17.4821429,12.9572355 L16.6964286,12.9572355 L16.6964286,13.9388442 L14.9285714,13.9388442 L14.9285714,14.920453 L13.75,14.920453 L13.75,15.70574 L11.9821429,15.70574 L11.9821429,16.6873487 L11.3928571,16.6873487 L11.3928571,17.6689575 L10.2142857,17.6689575 L10.2142857,18.6505662 L8.25,18.6505662 L8.25,17.6689575 L9.23214286,17.6689575 L9.23214286,16.6873487 L10.2142857,16.6873487 L10.2142857,15.70574 L11,15.70574 L11,14.920453 L11.9821429,14.920453 L11.9821429,13.9388442 L8.25,13.9388442 L8.25,14.920453 L7.46428571,14.920453 L7.46428571,15.70574 L6.48214286,15.70574 L6.48214286,14.920453 L5.5,14.920453 L5.5,13.9388442 L4.32142857,13.9388442 L4.32142857,12.9572355 L5.5,12.9572355 L5.5,11.9756267 L6.28571429,11.9756267 L6.28571429,11.1903397 L7.46428571,11.1903397 L7.46428571,10.208731 L8.05357143,10.208731 L8.05357143,9.22712223 L5.5,9.22712223 L5.5,11.1903397 L4.51785714,11.1903397 L3.73214286,11.1903397 L3.73214286,10.208731 L4.51785714,10.208731 L4.51785714,8.24551348 L5.5,8.24551348 L5.5,7.46022648 L3.73214286,7.46022648 L3.73214286,9.22712223 L2.75,9.22712223 L2.75,10.208731 L1.76785714,10.208731 L1.76785714,12.9572355 L0,12.9572355 L0,9.22712223 L0,7.46022648 L0.785714286,7.46022648 L0.785714286,5.49700899 L1.76785714,5.49700899 L1.76785714,4.71172199 L1.76785714,3.73011324 L3.73214286,3.73011324 L3.73214286,2.74850449 L4.51785714,2.74850449 L4.51785714,1.76689575 L6.48214286,1.76689575 L6.48214286,0.785286998 L11.9821429,0.785286998 L11.9821429,0 L16.6964286,0 L16.6964286,0.785286998 L19.4464286,0.785286998 L19.4464286,1.76689575 L21.4107143,1.76689575 L21.4107143,2.74850449 L23.1785714,2.74850449 L23.1785714,3.73011324 Z" id="light-hair" fill="#442711"></path>
                            <rect id="Rectangle-37" fill="#4C2B11" x="17.4821429" y="10.994018" width="1.96428571" height="1"></rect>
                            <rect id="Rectangle-34" fill="#442711" x="5.5" y="9.22712223" width="1.96428571" height="1"></rect>
                            <g id="nose" opacity="0.300000012" transform="translate(15.125000, 17.472636)" fill="#000000">
                                <rect id="Rectangle-47" x="0.982142857" y="3.92643499" width="1" height="2.15953924"></rect>
                                <rect id="Rectangle-49" x="2.75" y="2.94482624" width="1" height="2.94482624"></rect>
                                <rect id="Rectangle-49" x="2.75" y="0" width="1" height="1.9632175"></rect>
                                <rect id="Rectangle-50" x="3.73214286" y="4.90804374" width="1" height="2.74850449"></rect>
                                <rect id="Rectangle-51" x="0.982142857" y="6.67493948" width="2.75" height="1"></rect>
                                <rect id="Rectangle-48" x="0" y="4.90804374" width="1" height="2.74850449"></rect>
                            </g>
                            <g id="eye" transform="translate(10.214286, 17.668957)">
                                <rect id="Rectangle-41" fill="#3D1A17" x="0" y="0" width="2.75" height="1.1779305"></rect>
                                <rect id="Rectangle-41" fill="#2A1706" x="0" y="0.981608748" width="2.75" height="1.76689575"></rect>
                            </g>
                            <rect id="Rectangle-63" fill="#EEB67F" x="7.26785714" y="19.4358532" width="2.94642857" height="1.1779305"></rect>
                            <rect id="Rectangle-63" fill="#EEB67F" x="6.875" y="20.2211402" width="3.33928571" height="1.1779305"></rect>
                            <rect id="Rectangle-63" fill="#EEB67F" x="7.46428571" y="20.417462" width="3.33928571" height="1.1779305"></rect>
                            <rect id="Rectangle-63" fill="#EEB67F" x="6.875" y="21.2027489" width="3.73214286" height="1.1779305"></rect>
                            <rect id="Rectangle-63" fill="#EEB67F" x="6.67857143" y="21.9880359" width="4.125" height="3.56195274"></rect>
                            <rect id="Rectangle-63" fill="#EEB67F" x="6.875" y="24.9328622" width="4.71428571" height="2.94482624"></rect>
                            <rect id="Rectangle-63" fill="#EEB67F" x="7.26785714" y="25.7181492" width="4.71428571" height="2.94482624"></rect>
                            <rect id="Rectangle-63" fill="#EEB67F" x="8.25" y="26.5034362" width="4.71428571" height="2.94482624"></rect>
                            <rect id="Rectangle-63" fill="#EEB67F" x="9.82142857" y="27.4850449" width="4.71428571" height="2.94482624"></rect>
                            <rect id="Rectangle-63" fill="#EEB67F" x="12.5714286" y="28.6629754" width="4.71428571" height="2.94482624"></rect>
                            <rect id="Rectangle-63" fill="#EEB67F" x="13.5535714" y="29.4482624" width="5.5" height="2.94482624"></rect>
                            <rect id="Rectangle-63" fill="#EEB67F" x="13.5535714" y="28.6629754" width="5.5" height="2.94482624"></rect>
                            <rect id="Rectangle-63" fill="#EEB67F" x="15.5178571" y="28.6629754" width="5.5" height="2.94482624"></rect>
                            <rect id="Rectangle-63" fill="#EEB67F" x="19.25" y="27.4850449" width="2.75" height="2.94482624"></rect>
                            <rect id="Rectangle-63" fill="#EEB67F" x="20.0357143" y="26.5034362" width="2.75" height="2.94482624"></rect>
                            <rect id="Rectangle-63" fill="#EEB67F" x="21.0178571" y="25.7181492" width="2.75" height="2.94482624"></rect>
                            <rect id="Rectangle-63" fill="#EEB67F" x="25.1428571" y="19.4358532" width="1" height="6.28229599"></rect>
                            <g id="eye" transform="translate(21.410714, 17.668957)">
                                <rect id="Rectangle-41" fill="#3D1A17" x="0" y="0" width="2.75" height="1.1779305"></rect>
                                <rect id="Rectangle-41" fill="#2A1706" x="0" y="0.981608748" width="2.75" height="1.76689575"></rect>
                            </g>
                            <g id="teeth" transform="translate(11.086437, 26.896080)">
                                <rect id="Rectangle-42" fill="#FEFEE3" x="3.84213421" y="0" width="5.5" height="1"></rect>
                                <rect id="Rectangle-42" fill="#FEFEE3" x="4.6278485" y="0.540663866" width="3.73214286" height="1.42425198"></rect>
                                <rect id="Rectangle-42" fill="#EEB67F" x="0.908799015" y="0.981608748" width="3.73214286" height="1"></rect>
                                <rect id="Rectangle-42" fill="#EEB67F" x="0.114352706" y="0.364285913" width="3.73214286" height="1"></rect>
                            </g>
                        </g>
                        <g id="neck-shadow" stroke-width="1" fill="none" transform="translate(15.910714, 24.932862)">
                            <rect id="Rectangle-65" fill="#A67F58" x="4.71428571" y="15.3130965" width="6.48214286" height="1.37425225"></rect>
                            <rect id="Rectangle-66" fill="#A67F58" x="6.48214286" y="16.2947052" width="3.73214286" height="1.37425225"></rect>
                            <rect id="Rectangle-64" fill="#A67F58" x="0" y="0" width="1" height="4.71172199"></rect>
                            <rect id="Rectangle-64" fill="#A67F58" x="0.392857143" y="2.94482624" width="1" height="4.71172199"></rect>
                            <rect id="Rectangle-64" fill="#A67F58" x="0.785714286" y="3.73011324" width="1.375" height="4.71172199"></rect>
                            <rect id="Rectangle-64" fill="#A67F58" x="1.57142857" y="4.51540024" width="2.16071429" height="4.71172199"></rect>
                            <rect id="Rectangle-64" fill="#A67F58" x="2.75" y="5.49700899" width="3.73214286" height="4.71172199"></rect>
                            <rect id="Rectangle-64" fill="#A67F58" x="3.73214286" y="6.67493948" width="3.73214286" height="4.71172199"></rect>
                            <rect id="Rectangle-64" fill="#A67F58" x="6.48214286" y="7.46022648" width="5.69642857" height="4.71172199"></rect>
                            <rect id="Rectangle-64" fill="#A67F58" x="6.48214286" y="10.994018" width="5.69642857" height="4.71172199"></rect>
                            <rect id="Rectangle-64" fill="#A67F58" x="2.75" y="10.994018" width="5.69642857" height="4.71172199"></rect>
                            <rect id="Rectangle-64" fill="#A67F58" x="1.76785714" y="9.22712223" width="5.69642857" height="4.71172199"></rect>
                            <rect id="Rectangle-64" fill="#A67F58" x="0.982142857" y="7.46022648" width="5.69642857" height="4.71172199"></rect>
                            <rect id="Rectangle-67" fill="#A67F58" x="8.44642857" y="19.4358532" width="1.76785714" height="1"></rect>
                            <rect id="Rectangle-67" fill="#A67F58" x="2.75" y="20.417462" width="2.75" height="1"></rect>
                            <rect id="Rectangle-67" fill="#A67F58" x="2.75" y="19.4358532" width="1.57142857" height="1"></rect>
                            <rect id="Rectangle-67" fill="#A67F58" x="11.1964286" y="20.417462" width="2.75" height="1"></rect>
                            <rect id="Rectangle-67" fill="#A67F58" x="12.7678571" y="19.632175" width="1.17857143" height="1"></rect>
                        </g>
                    </g>
                </g>
            </g>
        </g>
    </g>
</svg>