<?xml version="1.0" encoding="UTF-8"?>
<svg width="51px" height="51px" viewBox="0 0 51 51" version="1.1" xmlns="http://www.w3.org/2000/svg" xmlns:xlink="http://www.w3.org/1999/xlink">
    <!-- Generator: Sketch 50.2 (55047) - http://www.bohemiancoding.com/sketch -->
    <title>twitter-square1</title>
    <desc>Created with Sketch.</desc>
    <defs></defs>
    <g id="Page-1" stroke="none" stroke-width="1" fill="none" fill-rule="evenodd">
        <g id="twitter-square1" fill="#F1C40F" fill-rule="nonzero">
            <path d="M45.4648571,0.225 L6.17914286,0.225 C3.22155357,0.225 0.822,2.62455357 0.822,5.58214286 L0.822,44.8678571 C0.822,47.8254464 3.22155357,50.225 6.17914286,50.225 L45.4648571,50.225 C48.4224464,50.225 50.822,47.8254464 50.822,44.8678571 L50.822,5.58214286 C50.822,2.62455357 48.4224464,0.225 45.4648571,0.225 Z M40.0072679,17.9482143 C40.0295893,18.2607143 40.0295893,18.584375 40.0295893,18.896875 C40.0295893,28.5732143 32.6635179,39.7227679 19.2036964,39.7227679 C15.0519107,39.7227679 11.2014643,38.5174107 7.96485714,36.4415179 C8.556375,36.5084821 9.12557143,36.5308036 9.72825,36.5308036 C13.1545893,36.5308036 16.3019107,35.3700893 18.8130714,33.4058036 C15.5987857,33.3388393 12.8978929,31.2294643 11.9715536,28.3276786 C13.0987857,28.4950893 14.1144107,28.4950893 15.275125,28.19375 C11.9269107,27.5129464 9.41575,24.5665179 9.41575,21.00625 L9.41575,20.9169643 C10.3867321,21.4638393 11.525125,21.7986607 12.7193214,21.8433036 C10.6800895,20.4868714 9.45638325,18.1987084 9.46039286,15.7495536 C9.46039286,14.3879464 9.81753571,13.1379464 10.4536964,12.0553571 C14.0586071,16.4973214 19.4715536,19.3991071 25.5429821,19.7116071 C24.5050357,14.7450893 28.2215536,10.7160714 32.6858393,10.7160714 C34.7952143,10.7160714 36.6925357,11.5977679 38.0318214,13.0263393 C39.6836071,12.7138393 41.2684286,12.1 42.6746786,11.2629464 C42.1278036,12.959375 40.97825,14.3879464 39.4603929,15.2919643 C40.9336071,15.1357143 42.3621786,14.7227679 43.6791429,14.1535714 C42.6858393,15.615625 41.4358393,16.9102679 40.0072679,17.9482143 Z" id="twitter1"></path>
        </g>
    </g>
</svg>